<?xml version="1.0" encoding="UTF-8" standalone="no"?>
<svg
   version="1.1"
   width="864.56689pt"
   height="283.4646pt"
   id="svg14"
   viewBox="0 0 864.56689 283.4646"
   sodipodi:docname="grupo-petropolis-seeklogo.com.cdr"
   xmlns:inkscape="http://www.inkscape.org/namespaces/inkscape"
   xmlns:sodipodi="http://sodipodi.sourceforge.net/DTD/sodipodi-0.dtd"
   xmlns="http://www.w3.org/2000/svg"
   xmlns:svg="http://www.w3.org/2000/svg">
  <defs
     id="defs18" />
  <sodipodi:namedview
     id="namedview16"
     pagecolor="#ffffff"
     bordercolor="#000000"
     borderopacity="0.25"
     inkscape:showpageshadow="2"
     inkscape:pageopacity="0.0"
     inkscape:pagecheckerboard="0"
     inkscape:deskcolor="#d1d1d1"
     inkscape:document-units="pt" />
  <path
     d="m 209.398,22.3968 h -94.183 c -36.5421,1.2699 -68.3409,18.069 -82.1555,53.893 -14.1719,36.7489 -3.3104,65.2468 30.7007,72.7035 16.1089,3.5318 38.1707,2.2359 55.3365,2.2743 10.2019,0.0233 47.7364,0.6299 56.553,0.0966 l 16.478,-62.9697 -54.5921,0.2908 -4.9956,19.0904 -0.01,-0.003 c -6.1067,0.0763 -19.2654,0.079 -25.9915,-0.002 -7.1441,-0.0853 -16.1383,-1.1924 -20.5125,-5.4198 -7.0043,-6.7706 -2.2316,-25.3214 12.1691,-30.666 12.1089,-2.6499 82.6388,-1.1367 98.8255,-1.9901 z"
     style="fill:#9c9b96;fill-rule:evenodd"
     id="path2" />
  <path
     d="m 194.3944,123.9192 c 13.1036,0.3826 34.0807,-2.7125 32.2747,13.9064 -1.4031,13.3385 -10.0788,20.8784 -23.4584,22.6993 -12.171,1.8632 -72.1589,0.4281 -91.2348,0.7129 l -26.1236,99.8299 56.626,-0.1852 14.5679,-55.6703 0.4075,0.1066 c 29.733,-0.4581 48.4535,3.474 75.5224,-7.815 46.4154,-19.3575 62.5826,-78.1052 39.5451,-104.5486 C 257.0885,75.0597 236.1263,76.0909 206.8599,76.2829 Z"
     style="fill:#e30016;fill-rule:evenodd"
     id="path4" />
  <path
     d="m 331.3502,139.3835 c -2.8423,1.3093 -5.7016,2.2547 -8.577,2.8366 -2.8758,0.582 -5.732,0.8728 -8.5683,0.8728 -3.0186,0 -5.6801,-0.4728 -7.9852,-1.4184 -2.3049,-0.9454 -4.1601,-2.3001 -5.5658,-4.0638 -1.4057,-1.7637 -2.3072,-3.9005 -2.7051,-6.4097 -0.3975,-2.5092 -0.2027,-5.3096 0.5842,-8.4005 0.7869,-3.0911 2.018,-5.8915 3.6932,-8.4007 1.6753,-2.5092 3.6647,-4.6457 5.9687,-6.4097 2.3037,-1.7637 4.8486,-3.1184 7.6348,-4.0638 2.7867,-0.9456 5.6889,-1.4184 8.7075,-1.4184 3.0911,0 5.8416,0.3727 8.2522,1.1182 2.4103,0.7456 4.3662,2.0277 5.8669,3.8458 l -7.6669,6.5461 c -0.8581,-1.2002 -1.9361,-2.1093 -3.2332,-2.7275 -1.2971,-0.6183 -3.0371,-0.9273 -5.2189,-0.9273 -1.8184,0 -3.5424,0.309 -5.1729,0.9273 -1.6302,0.6182 -3.1139,1.4819 -4.451,2.5911 -1.3368,1.1092 -2.4817,2.4273 -3.4342,3.9549 -0.9524,1.5273 -1.6554,3.1819 -2.1092,4.964 -0.4629,1.8182 -0.6046,3.4821 -0.4252,4.9913 0.1794,1.5091 0.6554,2.8182 1.4275,3.9274 0.7725,1.1092 1.8162,1.9729 3.1317,2.5911 1.3156,0.6183 2.8823,0.9275 4.7007,0.9275 1.8547,0 3.5079,-0.2092 4.9598,-0.6273 1.4522,-0.4184 2.634,-0.8456 3.545,-1.2821 l 1.5971,-6.2731 h -6.9279 l 1.9995,-7.855 h 15.1104 z m 16.6116,-35.8937 h 14.9465 c 1.9639,0 3.7792,0.1911 5.4457,0.5729 1.6665,0.3818 3.0501,1.0182 4.1505,1.9091 1.1007,0.8909 1.8496,2.0911 2.2476,3.6003 0.3974,1.5092 0.3092,3.3911 -0.2648,5.646 -0.6945,2.7275 -1.9939,5.0457 -3.8982,6.9551 -1.904,1.9092 -4.2848,3.1184 -7.1422,3.6275 l 5.6668,16.3103 h -10.2008 l -4.1431,-15.4375 h -4.2004 l -3.9302,15.4375 h -8.5096 z m 4.4408,15.9831 h 5.0184 c 0.764,0 1.5798,-0.0272 2.4483,-0.0819 0.8686,-0.0544 1.683,-0.2182 2.4435,-0.4909 0.7602,-0.2727 1.442,-0.6999 2.0446,-1.2819 0.6027,-0.5819 1.0383,-1.4 1.3068,-2.4548 0.25,-0.9819 0.2489,-1.7637 -0.003,-2.3456 -0.252,-0.5817 -0.6478,-1.0273 -1.1872,-1.3363 -0.5394,-0.3092 -1.1956,-0.5184 -1.9678,-0.6276 -0.7724,-0.1088 -1.5404,-0.1635 -2.304,-0.1635 h -5.5641 z m 57.4325,7.746 c -0.5834,2.2912 -1.4658,4.4005 -2.6476,6.3278 -1.1818,1.9275 -2.6348,3.6003 -4.3597,5.0184 -1.7249,1.4185 -3.7074,2.5277 -5.9474,3.3276 -2.2405,0.8002 -4.6879,1.2002 -7.3425,1.2002 -2.6913,0 -4.9533,-0.4 -6.7859,-1.2002 -1.8332,-0.7999 -3.2508,-1.9091 -4.2534,-3.3276 -1.0026,-1.4181 -1.6041,-3.0909 -1.8042,-5.0184 -0.2004,-1.9273 -0.009,-4.0366 0.5745,-6.3278 l 6.041,-23.7291 h 8.5096 l -5.9576,23.402 c -0.3056,1.1999 -0.3969,2.3091 -0.2744,3.3273 0.1227,1.0182 0.4343,1.9003 0.9357,2.6458 0.5009,0.7456 1.1804,1.3272 2.0376,1.7456 0.8572,0.4181 1.8496,0.6273 2.9769,0.6273 1.1273,0 2.217,-0.2092 3.2689,-0.6273 1.0522,-0.4184 2.0183,-1 2.8993,-1.7456 0.8804,-0.7455 1.6418,-1.6276 2.2827,-2.6458 0.6412,-1.0182 1.1143,-2.1274 1.4199,-3.3273 l 5.9576,-23.402 h 8.5099 z m 13.896,-23.7291 h 14.3464 c 2.0001,0 3.8449,0.182 5.5343,0.5457 1.6895,0.3636 3.0844,0.991 4.1848,1.8819 1.1007,0.8909 1.8496,2.0911 2.2476,3.6003 0.3974,1.5091 0.3047,3.4092 -0.2786,5.7004 -0.574,2.2547 -1.419,4.1457 -2.5353,5.673 -1.116,1.5276 -2.4265,2.7457 -3.9308,3.655 -1.5041,0.9091 -3.1777,1.5545 -5.0205,1.9364 -1.8428,0.3818 -3.7822,0.5728 -5.8189,0.5728 h -6.2187 l -3.833,15.0557 h -8.5096 z m 4.3435,16.365 h 5.6732 c 0.7637,0 1.5186,-0.0729 2.2649,-0.2183 0.7458,-0.1454 1.4448,-0.3909 2.0965,-0.7364 0.6514,-0.3456 1.2266,-0.8181 1.7249,-1.4182 0.4983,-0.6001 0.8629,-1.3547 1.0945,-2.2638 0.25,-0.9819 0.2239,-1.773 -0.0777,-2.3731 -0.3019,-0.5998 -0.7659,-1.0636 -1.3915,-1.391 -0.6259,-0.3271 -1.3638,-0.5363 -2.2133,-0.6273 -0.8498,-0.0907 -1.6744,-0.1363 -2.4747,-0.1363 h -4.3639 z m 23.0337,2.9457 c 0.7869,-3.0911 2.018,-5.8915 3.6933,-8.4007 1.6753,-2.5092 3.6646,-4.6457 5.9686,-6.4097 2.3038,-1.7637 4.8487,-3.1184 7.6349,-4.0638 2.7867,-0.9456 5.6888,-1.4184 8.7074,-1.4184 3.0184,0 5.6801,0.4728 7.9849,1.4184 2.3049,0.9454 4.1605,2.3001 5.5662,4.0638 1.4054,1.764 2.3068,3.9005 2.7048,6.4097 0.3974,2.5092 0.2027,5.3096 -0.5842,8.4007 -0.7869,3.0909 -2.018,5.8913 -3.6933,8.4005 -1.6753,2.5092 -3.6646,4.646 -5.9683,6.4097 -2.3038,1.7637 -4.849,3.1184 -7.6352,4.0638 -2.7864,0.9456 -5.6888,1.4184 -8.7071,1.4184 -3.0187,0 -5.6801,-0.4728 -7.9852,-1.4184 -2.3049,-0.9454 -4.1602,-2.3001 -5.5659,-4.0638 -1.4057,-1.7637 -2.3071,-3.9005 -2.7051,-6.4097 -0.3974,-2.5092 -0.2027,-5.3096 0.5842,-8.4005 z m 8.8371,0 c -0.4629,1.8182 -0.6047,3.4821 -0.4252,4.9913 0.1794,1.5091 0.6553,2.8182 1.4275,3.9274 0.7724,1.1092 1.8161,1.9729 3.1317,2.5911 1.3156,0.6183 2.8823,0.9275 4.7007,0.9275 1.8181,0 3.5427,-0.3092 5.1727,-0.9275 1.6302,-0.6182 3.1138,-1.4819 4.4509,-2.5911 1.3368,-1.1092 2.4795,-2.4183 3.4271,-3.9274 0.9482,-1.5092 1.6535,-3.1731 2.1163,-4.9913 0.4539,-1.7821 0.5933,-3.4367 0.4182,-4.964 -0.1747,-1.5276 -0.6483,-2.8457 -1.4205,-3.9549 -0.7724,-1.1092 -1.8161,-1.9729 -3.1317,-2.5911 -1.315,-0.6183 -2.8823,-0.9273 -4.7004,-0.9273 -1.8184,0 -3.5425,0.309 -5.173,0.9273 -1.6302,0.6182 -3.1138,1.4819 -4.4509,2.5911 -1.3368,1.1092 -2.4817,2.4273 -3.4342,3.9549 -0.9524,1.5273 -1.6554,3.1819 -2.1092,4.964 z"
     style="fill:#9c9b96;fill-rule:evenodd"
     id="path6" />
  <path
     d="m 507.4475,103.4898 h 14.3464 c 2.0001,0 3.8449,0.182 5.5344,0.5457 1.6894,0.3636 3.0844,0.991 4.1848,1.8819 1.1007,0.8909 1.8496,2.0911 2.2473,3.6003 0.3977,1.5091 0.305,3.4092 -0.2784,5.7004 -0.574,2.2547 -1.4193,4.1457 -2.5353,5.673 -1.116,1.5276 -2.4264,2.7457 -3.9308,3.655 -1.5041,0.9091 -3.1776,1.5545 -5.0204,1.9364 -1.8428,0.3818 -3.7823,0.5728 -5.819,0.5728 h -6.2186 l -3.833,15.0557 h -8.5097 z m 4.3435,16.365 h 5.6733 c 0.7636,0 1.5185,-0.0729 2.2649,-0.2183 0.7458,-0.1454 1.4448,-0.3909 2.0965,-0.7364 0.6514,-0.3456 1.2265,-0.8181 1.7249,-1.4182 0.4983,-0.6001 0.8628,-1.3547 1.0944,-2.2638 0.25,-0.9819 0.2239,-1.773 -0.0777,-2.3731 -0.3019,-0.5998 -0.7659,-1.0636 -1.3915,-1.391 -0.6259,-0.3271 -1.3637,-0.5363 -2.2133,-0.6273 -0.8498,-0.0907 -1.6744,-0.1363 -2.4746,-0.1363 h -4.364 z m 30.35,-16.365 h 26.2383 l -1.9998,7.8551 h -17.7284 l -1.8332,7.2005 h 16.7465 l -1.9998,7.8554 H 544.818 l -1.9995,7.8551 h 18.7104 l -1.9999,7.8551 h -27.2202 z m 39.596,7.528 h -11.0191 l 1.9165,-7.528 h 30.5479 l -1.9165,7.528 h -11.0192 l -7.9157,31.0932 h -8.5096 z m 25.7548,-7.528 h 14.9465 c 1.9638,0 3.7791,0.1911 5.4456,0.5729 1.6665,0.3818 3.0501,1.0182 4.1505,1.9091 1.1007,0.8909 1.8496,2.0911 2.2476,3.6003 0.3974,1.5092 0.3093,3.3911 -0.2647,5.646 -0.6945,2.7275 -1.9939,5.0457 -3.8982,6.9551 -1.9041,1.9092 -4.2849,3.1184 -7.1422,3.6275 l 5.6667,16.3103 h -10.2007 l -4.1434,-15.4375 h -4.2004 l -3.93,15.4375 h -8.5096 z m 4.4405,15.9831 h 5.0184 c 0.7639,0 1.58,-0.0272 2.4486,-0.0819 0.8685,-0.0544 1.6829,-0.2182 2.4434,-0.4909 0.7603,-0.2727 1.442,-0.6999 2.0447,-1.2819 0.6026,-0.5819 1.0383,-1.4 1.3067,-2.4548 0.2501,-0.9819 0.2489,-1.7637 -0.003,-2.3456 -0.252,-0.5817 -0.6477,-1.0273 -1.1871,-1.3363 -0.5398,-0.3092 -1.1957,-0.5184 -1.9679,-0.6276 -0.7724,-0.1088 -1.5403,-0.1635 -2.304,-0.1635 h -5.5641 z m 23.9184,3.3276 c 0.7869,-3.0911 2.018,-5.8915 3.6933,-8.4007 1.6752,-2.5092 3.6646,-4.6457 5.9683,-6.4097 2.3037,-1.7637 4.849,-3.1184 7.6351,-4.0638 2.7865,-0.9456 5.6889,-1.4184 8.7075,-1.4184 3.0183,0 5.6798,0.4728 7.9849,1.4184 2.3049,0.9454 4.1601,2.3001 5.5658,4.0638 1.4057,1.764 2.3072,3.9005 2.7051,6.4097 0.3975,2.5092 0.2027,5.3096 -0.5842,8.4007 -0.7869,3.0909 -2.018,5.8913 -3.6932,8.4005 -1.6753,2.5092 -3.6647,4.646 -5.9684,6.4097 -2.304,1.7637 -4.8489,3.1184 -7.6351,4.0638 -2.7867,0.9456 -5.6889,1.4184 -8.7072,1.4184 -3.0186,0 -5.6803,-0.4728 -7.9852,-1.4184 -2.3048,-0.9454 -4.1604,-2.3001 -5.5658,-4.0638 -1.4057,-1.7637 -2.3071,-3.9005 -2.7051,-6.4097 -0.3974,-2.5092 -0.2027,-5.3096 0.5842,-8.4005 z m 8.837,0 c -0.4629,1.8182 -0.6046,3.4821 -0.4252,4.9913 0.1795,1.5091 0.6554,2.8182 1.4275,3.9274 0.7725,1.1092 1.8162,1.9729 3.1318,2.5911 1.3152,0.6183 2.8822,0.9275 4.7007,0.9275 1.8181,0 3.5424,-0.3092 5.1726,-0.9275 1.6302,-0.6182 3.1139,-1.4819 4.451,-2.5911 1.3368,-1.1092 2.4794,-2.4183 3.4271,-3.9274 0.9482,-1.5092 1.6534,-3.1731 2.1163,-4.9913 0.4536,-1.7821 0.593,-3.4367 0.4181,-4.964 -0.1746,-1.5276 -0.6483,-2.8457 -1.4204,-3.9549 -0.7725,-1.1092 -1.8162,-1.9729 -3.1317,-2.5911 -1.315,-0.6183 -2.8823,-0.9273 -4.7004,-0.9273 -1.8185,0 -3.5425,0.309 -5.173,0.9273 -1.6302,0.6182 -3.1138,1.4819 -4.451,2.5911 -1.3368,1.1092 -2.4817,2.4273 -3.4341,3.9549 -0.9527,1.5273 -1.6557,3.1819 -2.1093,4.964 z m 19.6937,-30.0024 h 11.1283 l -11.437,7.8551 h -7.2005 z m 23.8436,10.6917 h 14.3465 c 2.0001,0 3.8449,0.182 5.5343,0.5457 1.6895,0.3636 3.0844,0.991 4.1848,1.8819 1.1007,0.8909 1.8496,2.0911 2.2473,3.6003 0.3977,1.5091 0.305,3.4092 -0.2783,5.7004 -0.5741,2.2547 -1.4193,4.1457 -2.5353,5.673 -1.116,1.5276 -2.4265,2.7457 -3.9309,3.655 -1.504,0.9091 -3.1776,1.5545 -5.0204,1.9364 -1.8428,0.3818 -3.7823,0.5728 -5.819,0.5728 h -6.2186 l -3.833,15.0557 h -8.5096 z m 4.3436,16.365 h 5.6732 c 0.7637,0 1.5185,-0.0729 2.2649,-0.2183 0.7458,-0.1454 1.4448,-0.3909 2.0965,-0.7364 0.6514,-0.3456 1.2266,-0.8181 1.7249,-1.4182 0.4983,-0.6001 0.8629,-1.3547 1.0945,-2.2638 0.25,-0.9819 0.2239,-1.773 -0.0777,-2.3731 -0.3019,-0.5998 -0.7659,-1.0636 -1.3915,-1.391 -0.6259,-0.3271 -1.3638,-0.5363 -2.2133,-0.6273 -0.8499,-0.0907 -1.6745,-0.1363 -2.4747,-0.1363 h -4.3639 z m 23.0337,2.9457 c 0.7869,-3.0911 2.018,-5.8915 3.6933,-8.4007 1.6753,-2.5092 3.6646,-4.6457 5.9683,-6.4097 2.3038,-1.7637 4.849,-3.1184 7.6352,-4.0638 2.7864,-0.9456 5.6888,-1.4184 8.7074,-1.4184 3.0184,0 5.6798,0.4728 7.9849,1.4184 2.3049,0.9454 4.1602,2.3001 5.5659,4.0638 1.4057,1.764 2.3071,3.9005 2.7051,6.4097 0.3974,2.5092 0.2026,5.3096 -0.5843,8.4007 -0.7869,3.0909 -2.0179,5.8913 -3.6932,8.4005 -1.6753,2.5092 -3.6646,4.646 -5.9684,6.4097 -2.304,1.7637 -4.8489,3.1184 -7.6351,4.0638 -2.7867,0.9456 -5.6888,1.4184 -8.7072,1.4184 -3.0186,0 -5.6803,-0.4728 -7.9852,-1.4184 -2.3048,-0.9454 -4.1604,-2.3001 -5.5658,-4.0638 -1.4057,-1.7637 -2.3071,-3.9005 -2.7051,-6.4097 -0.3974,-2.5092 -0.2027,-5.3096 0.5842,-8.4005 z m 8.837,0 c -0.4629,1.8182 -0.6046,3.4821 -0.4252,4.9913 0.1795,1.5091 0.6554,2.8182 1.4276,3.9274 0.7724,1.1092 1.8161,1.9729 3.1317,2.5911 1.3153,0.6183 2.8823,0.9275 4.7007,0.9275 1.8181,0 3.5424,-0.3092 5.1726,-0.9275 1.6302,-0.6182 3.1139,-1.4819 4.451,-2.5911 1.3368,-1.1092 2.4795,-2.4183 3.4271,-3.9274 0.9482,-1.5092 1.6534,-3.1731 2.1163,-4.9913 0.4536,-1.7821 0.593,-3.4367 0.4181,-4.964 -0.1746,-1.5276 -0.6482,-2.8457 -1.4204,-3.9549 -0.7724,-1.1092 -1.8162,-1.9729 -3.1317,-2.5911 -1.315,-0.6183 -2.8823,-0.9273 -4.7004,-0.9273 -1.8184,0 -3.5425,0.309 -5.173,0.9273 -1.6302,0.6182 -3.1138,1.4819 -4.4509,2.5911 -1.3368,1.1092 -2.4818,2.4273 -3.4342,3.9549 -0.9527,1.5273 -1.6557,3.1819 -2.1093,4.964 z m 43.8645,-19.3107 h 8.5099 l -7.8324,30.7661 h 15.7648 l -1.9998,7.8551 h -24.2748 z m 28.857,0 h 8.5096 l -9.8323,38.6212 h -8.5096 z m 32.9456,9.4371 c -0.4688,-0.8728 -1.241,-1.5182 -2.3162,-1.9363 -1.0757,-0.4184 -2.1407,-0.6274 -3.1952,-0.6274 -0.6182,0 -1.273,0.0726 -1.965,0.218 -0.6913,0.1454 -1.3677,0.3728 -2.0281,0.682 -0.6605,0.309 -1.2374,0.7183 -1.7309,1.2274 -0.4932,0.5091 -0.8322,1.1274 -1.0173,1.8548 -0.2963,1.1636 -0.0871,2.0545 0.6284,2.6727 0.7155,0.6183 1.6812,1.1455 2.8976,1.5821 1.216,0.4362 2.5325,0.8727 3.9489,1.309 1.4162,0.4365 2.6861,1.0548 3.8101,1.8547 1.1233,0.8002 1.9505,1.8729 2.4806,3.2185 0.5303,1.3456 0.5085,3.1456 -0.0655,5.4005 -0.5462,2.1456 -1.4233,4.0184 -2.6306,5.6186 -1.2072,1.6001 -2.6271,2.9273 -4.2596,3.9821 -1.6322,1.0545 -3.4132,1.8366 -5.3427,2.3457 -1.9301,0.5091 -3.8948,0.7636 -5.8949,0.7636 -2.5093,0 -4.7396,-0.3818 -6.6907,-1.1455 -1.9516,-0.7636 -3.6368,-2.0001 -5.0564,-3.7094 l 7.7494,-6.6552 c 0.5765,1.1639 1.4476,2.0639 2.6129,2.7003 1.1654,0.6364 2.4571,0.9547 3.8756,0.9547 0.6908,0 1.4116,-0.0819 2.1625,-0.2455 0.7506,-0.1638 1.4499,-0.4093 2.0968,-0.7364 0.6471,-0.3274 1.2078,-0.7455 1.6829,-1.2546 0.4754,-0.5091 0.8008,-1.1092 0.9766,-1.8003 0.2962,-1.1636 0.0847,-2.082 -0.6353,-2.7547 -0.7197,-0.6727 -1.692,-1.2455 -2.9171,-1.7184 -1.2252,-0.4728 -2.5594,-0.9453 -4.0031,-1.4181 -1.4431,-0.4729 -2.736,-1.1092 -3.8778,-1.9095 -1.1418,-0.7999 -1.9916,-1.8547 -2.5492,-3.1637 -0.5576,-1.3093 -0.5635,-3.0365 -0.0173,-5.1823 0.5275,-2.0727 1.4,-3.8911 2.6161,-5.455 1.2164,-1.5636 2.6408,-2.8729 4.273,-3.9274 1.6324,-1.0548 3.4063,-1.8456 5.3228,-2.3729 1.916,-0.5275 3.8197,-0.7911 5.7107,-0.7911 2.1821,0 4.2126,0.3092 6.0917,0.9275 1.8791,0.6182 3.4517,1.6546 4.718,3.1093 z"
     style="fill:#e30016;fill-rule:evenodd"
     id="path8" />
  <path
     d="m 305.0416,181.7552 7.7298,-14.0116 h -3.3678 l -3.0745,5.987 c -0.822,1.6007 -1.6157,3.2638 -2.3312,4.9479 h -0.0624 c 0.0425,-1.7464 -0.0501,-3.3472 -0.1709,-5.0102 l -0.4314,-5.9247 h -3.4719 l 1.4797,14.0116 z m 21.4146,-14.2404 c -4.1369,0 -7.4934,3.1391 -8.3956,7.3383 -0.8578,3.9918 0.9,7.1309 5.0575,7.1309 4.0955,0 7.4801,-2.7859 8.4674,-7.3803 0.8308,-3.8668 -0.826,-7.0889 -5.1293,-7.0889 z m -0.6236,2.5155 c 2.1827,0 2.9239,2.162 2.3834,4.6774 -0.5851,2.7233 -2.2496,4.7608 -4.3909,4.7608 -2.1206,0 -2.994,-1.9335 -2.4043,-4.6777 0.585,-2.7233 2.2705,-4.7605 4.4118,-4.7605 z m 22.8546,8.856 c -0.6775,0.2494 -1.7821,0.4575 -2.7385,0.4575 -2.8273,0 -4.1108,-1.7671 -3.5076,-4.5737 0.6701,-3.1184 2.9503,-4.6361 5.4657,-4.6361 1.1226,0 1.963,0.2497 2.5492,0.5199 l 1.1852,-2.5155 c -0.4986,-0.2911 -1.6747,-0.6236 -3.3168,-0.6236 -4.2412,0 -8.2222,2.6609 -9.2498,7.4424 -0.8577,3.9914 0.9893,7.0058 5.8332,7.0058 1.7045,0 3.0815,-0.3118 3.7258,-0.6027 z m 18.2347,-5.6339 h -5.1556 l 0.6253,-2.9103 h 5.4675 l 0.5584,-2.5985 h -8.6482 l -3.0107,14.0116 h 8.9393 l 0.5584,-2.5985 h -5.7585 l 0.7146,-3.3265 h 5.1556 z m -3.2199,-8.8143 -2.6282,2.5568 h 2.2036 l 1.3164,-1.2889 h 0.0417 l 0.7832,1.2889 h 2.2244 l -1.5503,-2.5568 z m 32.4618,8.8143 h -5.1556 l 0.6253,-2.9103 h 5.4675 l 0.5584,-2.5985 h -8.6482 l -3.0107,14.0116 h 8.9393 l 0.5585,-2.5985 h -5.7586 l 0.7146,-3.3265 h 5.1557 z m -1.8062,-8.8143 -2.2958,2.5568 h 2.5158 l 3.1062,-2.5568 z m 23.7954,17.3171 0.9068,-4.2202 c 0.4913,-2.2867 0.874,-4.2616 1.1886,-6.1118 l 0.0669,-0.021 c 0.3331,1.6424 0.8592,3.4509 1.3689,4.9479 l 1.8323,5.4051 h 3.3264 l 3.0107,-14.0116 h -2.9106 l -0.8799,4.0952 c -0.4513,2.0999 -0.7954,3.9914 -0.9853,5.8419 h -0.0624 c -0.284,-1.58 -0.7401,-3.3265 -1.2546,-4.8025 l -1.8071,-5.1346 h -3.7006 l -3.0107,14.0116 z m 26.7991,-14.2404 c -4.1369,0 -7.4934,3.1391 -8.3957,7.3383 -0.8578,3.9918 0.9,7.1309 5.0576,7.1309 4.0955,0 7.48,-2.7859 8.4674,-7.3803 0.8308,-3.8668 -0.8261,-7.0889 -5.1293,-7.0889 z m -0.6237,2.5155 c 2.1827,0 2.924,2.162 2.3834,4.6774 -0.5851,2.7233 -2.2496,4.7608 -4.3909,4.7608 -2.1206,0 -2.9939,-1.9335 -2.4043,-4.6777 0.5851,-2.7233 2.2705,-4.7605 4.4118,-4.7605 z m 12.0238,11.0803 c 0.6959,0.4368 2.1866,0.8524 3.7873,0.8524 3.8461,0 6.0837,-1.9956 6.5886,-4.3447 0.4243,-1.9752 -0.4629,-3.2641 -2.7405,-4.1788 -1.6611,-0.686 -2.3661,-1.0809 -2.1742,-1.9749 0.1565,-0.7277 0.9558,-1.3513 2.3278,-1.3513 1.372,0 2.285,0.3952 2.7882,0.6653 l 1.2563,-2.5571 c -0.7509,-0.3742 -1.8437,-0.7067 -3.4237,-0.7067 -3.3055,0 -5.6943,1.8295 -6.2082,4.2202 -0.4376,2.0373 0.8028,3.3262 2.9571,4.1369 1.5545,0.6029 2.1124,1.1018 1.925,1.9749 -0.1967,0.9147 -1.0956,1.5177 -2.5509,1.5177 -1.3512,0 -2.567,-0.4366 -3.3256,-0.8731 z m 17.3568,0 c 0.6959,0.4368 2.1866,0.8524 3.7873,0.8524 3.8461,0 6.0838,-1.9956 6.5886,-4.3447 0.4244,-1.9752 -0.4629,-3.2641 -2.7405,-4.1788 -1.6611,-0.686 -2.3661,-1.0809 -2.1742,-1.9749 0.1565,-0.7277 0.9558,-1.3513 2.3278,-1.3513 1.372,0 2.285,0.3952 2.7882,0.6653 l 1.2563,-2.5571 c -0.7509,-0.3742 -1.8437,-0.7067 -3.4237,-0.7067 -3.3055,0 -5.6942,1.8295 -6.2082,4.2202 -0.4376,2.0373 0.8028,3.3262 2.9571,4.1369 1.5546,0.6029 2.1124,1.1018 1.9251,1.9749 -0.1968,0.9147 -1.0956,1.5177 -2.5509,1.5177 -1.3513,0 -2.5671,-0.4366 -3.3256,-0.8731 z m 26.9932,-13.5958 c -4.1369,0 -7.4934,3.1391 -8.3957,7.3383 -0.8577,3.9918 0.9,7.1309 5.0576,7.1309 4.0955,0 7.4801,-2.7859 8.4674,-7.3803 0.8308,-3.8668 -0.8261,-7.0889 -5.1293,-7.0889 z m -0.6236,2.5155 c 2.1826,0 2.9239,2.162 2.3833,4.6774 -0.585,2.7233 -2.2496,4.7608 -4.3908,4.7608 -2.1206,0 -2.994,-1.9335 -2.4044,-4.6777 0.5851,-2.7233 2.2706,-4.7605 4.4119,-4.7605 z m 36.4932,11.7249 h 3.0977 l 2.2413,-14.0116 h -4.1368 l -2.4977,4.6564 c -0.7922,1.5594 -1.6679,3.4095 -2.4114,5.031 h -0.0623 c 0.0411,-1.6421 -0.0205,-3.3886 -0.1086,-5.01 l -0.3668,-4.6774 h -4.2202 l -3.9048,14.0116 h 2.9313 l 1.393,-5.322 c 0.4793,-1.7462 1.0063,-3.9084 1.4958,-5.8 h 0.0417 c -0.0607,1.8292 -0.0113,3.8251 0.0933,5.4675 l 0.3308,5.4258 h 2.4738 l 2.8797,-5.4675 c 0.8935,-1.6424 1.904,-3.638 2.7252,-5.4258 h 0.0624 c -0.438,2.0373 -0.8133,4.0745 -1.1129,5.7586 z m 19.6472,-3.5966 0.3084,3.5966 h 3.4092 l -1.3342,-14.0116 h -4.1576 l -7.2933,14.0116 h 3.2845 l 1.7708,-3.5966 z m -3.0456,-2.3697 1.4704,-2.973 c 0.4028,-0.8107 0.8385,-1.8709 1.2251,-2.7026 h 0.0417 c 0.0289,0.8317 0.055,1.8712 0.1258,2.7026 l 0.2347,2.973 z m 17.7755,-8.0453 -3.0106,14.0116 h 3.1807 l 3.0107,-14.0116 z m 18.2795,-0.2288 c -4.1368,0 -7.4933,3.1391 -8.3956,7.3383 -0.8578,3.9918 0.9,7.1309 5.0576,7.1309 4.0955,0 7.48,-2.7859 8.4673,-7.3803 0.8309,-3.8668 -0.826,-7.0889 -5.1293,-7.0889 z m -0.6236,2.5155 c 2.1827,0 2.924,2.162 2.3834,4.6774 -0.5851,2.7233 -2.2496,4.7608 -4.3909,4.7608 -2.1206,0 -2.9939,-1.9335 -2.4043,-4.6777 0.585,-2.7233 2.2705,-4.7605 4.4118,-4.7605 z m 12.4257,11.7249 h 3.1394 l 1.1837,-5.5091 h 0.9561 c 1.2844,0.021 1.7847,0.4989 1.7836,2.2453 0.0451,1.7255 0.1318,2.8689 0.2758,3.2638 h 3.2431 c -0.1539,-0.5406 -0.1978,-2.37 -0.2948,-3.9498 -0.0762,-1.2889 -0.4158,-2.2246 -1.3079,-2.6195 l 0.0133,-0.0623 c 1.2994,-0.4366 2.8313,-1.6631 3.2154,-3.4509 0.2769,-1.289 0.0295,-2.2661 -0.6591,-2.9313 -0.828,-0.7901 -2.2164,-1.1019 -4.2953,-1.1019 -1.6838,0 -3.2284,0.1248 -4.2829,0.2911 z m 5.6452,-11.6626 c 0.2375,-0.0416 0.6874,-0.104 1.4567,-0.104 1.4511,0.0207 2.1855,0.6653 1.9086,1.9542 -0.2636,1.2266 -1.3689,2.0166 -2.9489,2.0166 h -1.2472 z m 35.2522,8.7937 c -0.6775,0.2494 -1.7821,0.4575 -2.7385,0.4575 -2.8273,0 -4.1108,-1.7671 -3.5076,-4.5737 0.6701,-3.1184 2.9503,-4.6361 5.4657,-4.6361 1.1225,0 1.963,0.2497 2.5492,0.5199 l 1.1852,-2.5155 c -0.4986,-0.2911 -1.6747,-0.6236 -3.3168,-0.6236 -4.2412,0 -8.2222,2.6609 -9.2498,7.4424 -0.8577,3.9914 0.9893,7.0058 5.8332,7.0058 1.7044,0 3.0815,-0.3118 3.7258,-0.6027 z m 16.6822,-11.3715 c -4.1369,0 -7.4934,3.1391 -8.3957,7.3383 -0.8577,3.9918 0.9,7.1309 5.0576,7.1309 4.0955,0 7.4801,-2.7859 8.4674,-7.3803 0.8308,-3.8668 -0.826,-7.0889 -5.1293,-7.0889 z m -0.6236,2.5155 c 2.1826,0 2.9239,2.162 2.3833,4.6774 -0.585,2.7233 -2.2495,4.7608 -4.3908,4.7608 -2.1206,0 -2.994,-1.9335 -2.4044,-4.6777 0.5851,-2.7233 2.2706,-4.7605 4.4119,-4.7605 z m 24.4834,11.7249 h 3.0977 l 2.2413,-14.0116 h -4.1369 l -2.4976,4.6564 c -0.7923,1.5594 -1.6679,3.4095 -2.4114,5.031 h -0.0624 c 0.0411,-1.6421 -0.0204,-3.3886 -0.1085,-5.01 l -0.3668,-4.6774 h -4.2203 l -3.9047,14.0116 h 2.9313 l 1.393,-5.322 c 0.4793,-1.7462 1.0063,-3.9084 1.4958,-5.8 h 0.0417 c -0.0607,1.8292 -0.0114,3.8251 0.0932,5.4675 l 0.3308,5.4258 h 2.4738 l 2.8798,-5.4675 c 0.8934,-1.6424 1.904,-3.638 2.7252,-5.4258 h 0.0623 c -0.4379,2.0373 -0.8132,4.0745 -1.1128,5.7586 z m 11.6606,0 h 3.1393 l 1.0766,-5.0102 c 0.2818,0.0416 0.6514,0.0623 1.0673,0.0623 1.8711,0 3.5702,-0.4572 4.8699,-1.476 1.0015,-0.79 1.709,-1.9542 2.0038,-3.3261 0.2948,-1.372 -0.0578,-2.5362 -0.7999,-3.2432 -0.7747,-0.7483 -2.0872,-1.1225 -4.0414,-1.1225 -1.9332,0 -3.3324,0.1248 -4.3452,0.2911 z m 5.6318,-11.6002 c 0.2418,-0.0624 0.692,-0.1247 1.3366,-0.1247 1.58,0 2.3085,0.769 2.0316,2.0579 -0.3085,1.4346 -1.531,2.287 -3.2148,2.287 -0.4575,0 -0.7855,-0.021 -1.0423,-0.0833 z m 12.5774,11.6002 h 3.1393 l 1.1838,-5.5091 h 0.9561 c 1.2844,0.021 1.7847,0.4989 1.7836,2.2453 0.045,1.7255 0.1318,2.8689 0.2758,3.2638 h 3.2431 c -0.1539,-0.5406 -0.1979,-2.37 -0.2948,-3.9498 -0.0763,-1.2889 -0.4159,-2.2246 -1.3079,-2.6195 l 0.0133,-0.0623 c 1.2994,-0.4366 2.8312,-1.6631 3.2153,-3.4509 0.277,-1.289 0.0295,-2.2661 -0.659,-2.9313 -0.828,-0.7901 -2.2164,-1.1019 -4.2954,-1.1019 -1.6837,0 -3.2283,0.1248 -4.2828,0.2911 z m 5.6452,-11.6626 c 0.2375,-0.0416 0.6874,-0.104 1.4567,-0.104 1.451,0.0207 2.1855,0.6653 1.9085,1.9542 -0.2636,1.2266 -1.3688,2.0166 -2.9488,2.0166 h -1.2473 z m 21.9648,-2.5778 c -4.1369,0 -7.4934,3.1391 -8.3957,7.3383 -0.8577,3.9918 0.9,7.1309 5.0576,7.1309 4.0955,0 7.4801,-2.7859 8.4674,-7.3803 0.8308,-3.8668 -0.8261,-7.0889 -5.1293,-7.0889 z m -0.6237,2.5155 c 2.1827,0 2.924,2.162 2.3834,4.6774 -0.5851,2.7233 -2.2496,4.7608 -4.3908,4.7608 -2.1206,0 -2.994,-1.9335 -2.4044,-4.6777 0.5851,-2.7233 2.2706,-4.7605 4.4118,-4.7605 z m 24.4834,11.7249 h 3.0977 l 2.2414,-14.0116 h -4.1369 L 762.514,172.4 c -0.7923,1.5594 -1.6679,3.4095 -2.4114,5.031 h -0.0624 c 0.0411,-1.6421 -0.0204,-3.3886 -0.1085,-5.01 l -0.3668,-4.6774 h -4.2203 l -3.9047,14.0116 h 2.9313 l 1.393,-5.322 c 0.4793,-1.7462 1.0063,-3.9084 1.4958,-5.8 h 0.0417 c -0.0607,1.8292 -0.0114,3.8251 0.0932,5.4675 l 0.3308,5.4258 h 2.4738 l 2.8797,-5.4675 c 0.8935,-1.6424 1.9041,-3.638 2.7253,-5.4258 h 0.0623 c -0.4379,2.0373 -0.8132,4.0745 -1.1128,5.7586 z m 14.6713,-14.0116 -3.0107,14.0116 h 3.1808 l 3.0107,-14.0116 z m 8.6431,13.367 c 0.6959,0.4368 2.1867,0.8524 3.7874,0.8524 3.8461,0 6.0837,-1.9956 6.5886,-4.3447 0.4243,-1.9752 -0.4629,-3.2641 -2.7406,-4.1788 -1.6611,-0.686 -2.366,-1.0809 -2.1741,-1.9749 0.1564,-0.7277 0.9558,-1.3513 2.3278,-1.3513 1.372,0 2.285,0.3952 2.7881,0.6653 l 1.2564,-2.5571 c -0.7509,-0.3742 -1.8437,-0.7067 -3.4237,-0.7067 -3.3055,0 -5.6943,1.8295 -6.2082,4.2202 -0.4377,2.0373 0.8028,3.3262 2.9571,4.1369 1.5545,0.6029 2.1124,1.1018 1.925,1.9749 -0.1967,0.9147 -1.0956,1.5177 -2.5509,1.5177 -1.3513,0 -2.567,-0.4366 -3.3256,-0.8731 z m 17.3569,0 c 0.6959,0.4368 2.1866,0.8524 3.7873,0.8524 3.8461,0 6.0837,-1.9956 6.5886,-4.3447 0.4243,-1.9752 -0.4629,-3.2641 -2.7405,-4.1788 -1.6611,-0.686 -2.3661,-1.0809 -2.1742,-1.9749 0.1565,-0.7277 0.9558,-1.3513 2.3278,-1.3513 1.372,0 2.285,0.3952 2.7882,0.6653 l 1.2563,-2.5571 c -0.7509,-0.3742 -1.8437,-0.7067 -3.4237,-0.7067 -3.3055,0 -5.6942,1.8295 -6.2082,4.2202 -0.4376,2.0373 0.8028,3.3262 2.9571,4.1369 1.5546,0.6029 2.1124,1.1018 1.925,1.9749 -0.1967,0.9147 -1.0955,1.5177 -2.5509,1.5177 -1.3512,0 -2.567,-0.4366 -3.3256,-0.8731 z m 26.9932,-13.5958 c -4.1369,0 -7.4934,3.1391 -8.3957,7.3383 -0.8578,3.9918 0.9,7.1309 5.0576,7.1309 4.0955,0 7.48,-2.7859 8.4673,-7.3803 0.8309,-3.8668 -0.826,-7.0889 -5.1292,-7.0889 z m -0.6237,2.5155 c 2.1827,0 2.924,2.162 2.3834,4.6774 -0.5851,2.7233 -2.2496,4.7608 -4.3909,4.7608 -2.1206,0 -2.9939,-1.9335 -2.4043,-4.6777 0.5851,-2.7233 2.2705,-4.7605 4.4118,-4.7605 z"
     style="fill:#1b1918;fill-rule:evenodd"
     id="path10" />
  <path
     d="m 809.2539,158.3187 -4.6249,-2.6703 z"
     style="fill:#bfa85c;fill-rule:evenodd"
     id="path12" />
</svg>
