<svg width="185" height="40" viewBox="0 0 185 40" fill="none" xmlns="http://www.w3.org/2000/svg">
<g id="02.logo" clip-path="url(#clip0_6118_9381)">
<g id="Logo">
<path d="M16.2244 5.34945L12.9974 7.14527C12.5984 6.38109 12.0059 5.72041 11.272 5.22109C10.6057 4.85484 9.84114 4.67659 9.06979 4.70766C8.06886 4.67395 7.08985 4.98814 6.32022 5.59005C5.97261 5.85103 5.69335 6.18338 5.5039 6.56155C5.31445 6.93973 5.21985 7.35367 5.22739 7.77154C5.22739 8.9799 6.18417 9.95303 8.09775 10.6909L10.7291 11.7011C12.5401 12.2998 14.1575 13.3242 15.4272 14.6766C16.4399 15.907 16.9657 17.4297 16.9148 18.9841C16.9487 20.0319 16.7501 21.0749 16.3317 22.0467C15.9133 23.0186 15.2842 23.8981 14.4844 24.6295C13.6861 25.3676 12.7375 25.9471 11.6953 26.3331C10.6531 26.7191 9.53873 26.9037 8.41879 26.876C6.33792 26.9471 4.30781 26.263 2.74991 24.9656C1.19555 23.5296 0.223377 21.6294 0.000976562 19.5924L4.03029 18.7566C4.21253 20.2109 4.5304 21.2159 4.9839 21.7715C5.39079 22.2995 5.93243 22.7229 6.55905 23.003C7.18567 23.2831 7.8772 23.4109 8.5701 23.3745C9.14326 23.3901 9.71366 23.2943 10.2455 23.0931C10.7774 22.892 11.2593 22.5898 11.6611 22.2056C12.0686 21.8153 12.3877 21.3514 12.599 20.842C12.8104 20.3327 12.9095 19.7884 12.8906 19.242C12.8959 18.7937 12.824 18.3475 12.6776 17.9208C12.532 17.5158 12.3057 17.1406 12.0107 16.8151C11.6716 16.4487 11.2776 16.1305 10.841 15.8706C10.2985 15.5449 9.72746 15.2633 9.134 15.0289L6.59105 14.036C2.98132 12.6048 1.17625 10.5114 1.17582 7.75602C1.16087 6.86886 1.35724 5.98977 1.75058 5.18305C2.14391 4.37632 2.72428 3.66235 3.44922 3.09333C5.01321 1.81668 7.03293 1.1418 9.10412 1.20378C12.143 1.20378 14.5164 2.58527 16.2244 5.34826" fill="#10052C"/>
<path d="M36.9075 20.4159H25.6213L22.6835 26.4368H18.3974L31.4434 0.109025L44.031 26.4374H39.6736L36.9075 20.4159ZM35.2858 16.9132L31.3753 8.49529L27.2767 16.9132H35.2858Z" fill="#10052C"/>
<path d="M47.3132 26.4376V0L66.5475 18.8764V1.67164H70.5406V27.9403L51.3057 9.10269V26.4376H47.3132Z" fill="#10052C"/>
<path d="M75.7651 13.935C75.7456 12.2545 76.0985 10.5885 76.8012 9.04281C77.5039 7.49716 78.5412 6.1056 79.8472 4.95649C81.1218 3.74427 82.6445 2.78688 84.3236 2.14202C86.0026 1.49716 87.8034 1.17816 89.6172 1.20426C91.4186 1.18156 93.2058 1.50559 94.8688 2.15636C96.5317 2.80713 98.035 3.77086 99.2862 4.98814C100.588 6.16238 101.62 7.57541 102.316 9.13953C103.012 10.7037 103.359 12.3855 103.335 14.0807C103.365 15.7734 103.018 17.4534 102.318 19.0133C101.617 20.5732 100.578 21.9786 99.2658 23.1398C96.741 25.461 93.3718 26.7953 89.8394 26.8729C86.3071 26.9505 82.8751 25.7656 80.2375 23.5577C77.2534 21.1095 75.7615 17.9024 75.7619 13.9362M79.7836 13.9768C79.7416 15.2326 79.9815 16.4826 80.4876 17.6456C80.9938 18.8086 81.7548 19.8585 82.7214 20.7272C84.5509 22.4308 87.0258 23.3825 89.6023 23.3733C92.1787 23.3642 94.6458 22.3948 96.4616 20.6783C97.3893 19.8097 98.1202 18.7738 98.6104 17.633C99.1007 16.4922 99.34 15.27 99.3141 14.0401C99.3475 12.812 99.1149 11.5904 98.6306 10.4492C98.1463 9.30807 97.4202 8.27114 96.4965 7.40127C94.6548 5.67635 92.1599 4.70768 89.5587 4.70768C86.9576 4.70768 84.4626 5.67635 82.6209 7.40127C81.6956 8.25736 80.9669 9.28234 80.4796 10.413C79.9923 11.5437 79.7567 12.7562 79.7874 13.9756" fill="#10052C"/>
<path d="M108.508 1.66978L115.799 18.828L123.193 1.66978H127.548L115.714 28.2966L104.154 1.66978H108.508Z" fill="#10052C"/>
<path d="M128.342 13.935C128.323 12.2545 128.675 10.5885 129.378 9.04283C130.081 7.49717 131.118 6.10561 132.424 4.95651C133.699 3.74416 135.222 2.78671 136.901 2.14185C138.58 1.49698 140.381 1.17805 142.195 1.20427C143.997 1.1818 145.784 1.50593 147.447 2.15669C149.109 2.80745 150.613 3.77106 151.864 4.98815C153.166 6.16253 154.197 7.5756 154.893 9.1397C155.589 10.7038 155.936 12.3856 155.912 14.0807C155.942 15.7734 155.595 17.4534 154.895 19.0133C154.194 20.5732 153.155 21.9786 151.843 23.1398C149.318 25.461 145.949 26.7954 142.416 26.8729C138.884 26.9505 135.452 25.7656 132.814 23.5577C129.83 21.1095 128.338 17.9024 128.339 13.9362M132.361 13.9768C132.318 15.2325 132.558 16.4825 133.063 17.6456C133.569 18.8087 134.33 19.8589 135.296 20.7278C137.125 22.4314 139.6 23.3831 142.177 23.374C144.753 23.3648 147.22 22.3954 149.036 20.6789C149.963 19.8101 150.694 18.774 151.184 17.6331C151.674 16.4922 151.913 15.27 151.887 14.0401C151.92 12.8121 151.688 11.5905 151.204 10.4494C150.72 9.30823 149.994 8.27125 149.07 7.40128C147.228 5.67647 144.733 4.70789 142.132 4.70789C139.531 4.70789 137.036 5.67647 135.194 7.40128C134.269 8.25737 133.54 9.28235 133.053 10.413C132.565 11.5437 132.33 12.7562 132.361 13.9756" fill="#10052C"/>
<path fill-rule="evenodd" clip-rule="evenodd" d="M184.155 13.8108C184.159 15.8818 183.508 17.9071 182.285 19.6305C181.062 21.3539 179.322 22.698 177.285 23.4926C175.249 24.2872 173.007 24.4966 170.844 24.0945C168.68 23.6923 166.693 22.6965 165.132 21.2332C163.572 19.7699 162.508 17.9047 162.077 15.8738C161.645 13.8428 161.865 11.7373 162.708 9.8236C163.551 7.90994 164.98 6.27413 166.813 5.12315C168.647 3.97217 170.802 3.35775 173.008 3.35763C174.471 3.35653 175.919 3.62605 177.271 4.15079C178.623 4.67553 179.852 5.44521 180.887 6.41589C181.922 7.38657 182.744 8.53923 183.305 9.80805C183.865 11.0769 184.154 12.437 184.155 13.8108Z" fill="#FDC300"/>
<path fill-rule="evenodd" clip-rule="evenodd" d="M183.913 13.7071C183.916 15.7491 183.274 17.7462 182.068 19.4455C180.862 21.1449 179.147 22.4702 177.139 23.2537C175.131 24.0373 172.92 24.2438 170.787 23.8473C168.654 23.4508 166.694 22.469 165.155 21.0261C163.616 19.5832 162.568 17.7441 162.142 15.7415C161.717 13.7389 161.934 11.6628 162.765 9.77587C163.596 7.88893 165.005 6.27596 166.813 5.14106C168.62 4.00615 170.746 3.40031 172.921 3.40019C174.363 3.39909 175.792 3.66482 177.125 4.18221C178.458 4.6996 179.669 5.45851 180.69 6.41561C181.711 7.37271 182.521 8.50924 183.073 9.76032C183.626 11.0114 183.912 12.3525 183.913 13.7071Z" fill="#FDC400"/>
<path fill-rule="evenodd" clip-rule="evenodd" d="M183.669 13.6022C183.672 15.6154 183.04 17.5842 181.851 19.2596C180.662 20.935 178.971 22.2416 176.992 23.0142C175.012 23.7867 172.833 23.9904 170.73 23.5996C168.627 23.2087 166.695 22.2408 165.177 20.8184C163.66 19.3959 162.627 17.5828 162.207 15.6086C161.788 13.6343 162.002 11.5875 162.821 9.72728C163.641 7.86704 165.03 6.27692 166.812 5.15814C168.594 4.03935 170.69 3.44217 172.833 3.44217C174.255 3.44115 175.664 3.70314 176.978 4.21317C178.292 4.72321 179.486 5.4713 180.492 6.41475C181.498 7.35819 182.297 8.4785 182.842 9.71172C183.387 10.9449 183.668 12.2669 183.669 13.6022Z" fill="#FDC500"/>
<path fill-rule="evenodd" clip-rule="evenodd" d="M183.426 13.4991C183.429 15.4834 182.806 17.4241 181.634 19.0756C180.463 20.727 178.796 22.015 176.844 22.7765C174.893 23.538 172.745 23.7388 170.672 23.3536C168.599 22.9683 166.695 22.0143 165.199 20.6122C163.704 19.2102 162.685 17.423 162.272 15.477C161.858 13.531 162.069 11.5135 162.877 9.67992C163.685 7.8463 165.054 6.27893 166.81 5.17615C168.567 4.07337 170.633 3.48473 172.746 3.48473C174.147 3.48355 175.535 3.74166 176.831 4.24432C178.126 4.74698 179.303 5.48434 180.295 6.41429C181.287 7.34424 182.074 8.44856 182.611 9.66417C183.148 10.8798 183.425 12.1829 183.426 13.4991Z" fill="#FDC500"/>
<path fill-rule="evenodd" clip-rule="evenodd" d="M183.183 13.3953C183.186 15.3505 182.571 17.2625 181.417 18.8895C180.262 20.5166 178.62 21.7854 176.697 22.5356C174.775 23.2858 172.658 23.4836 170.616 23.104C168.574 22.7243 166.697 21.7843 165.224 20.4029C163.751 19.0214 162.747 17.2606 162.34 15.3433C161.932 13.4259 162.14 11.4382 162.936 9.63158C163.731 7.82497 165.08 6.28066 166.811 5.19406C168.542 4.10746 170.577 3.52741 172.659 3.52729C174.04 3.52627 175.407 3.78071 176.684 4.27609C177.96 4.77147 179.12 5.49808 180.097 6.41443C181.074 7.33078 181.85 8.41892 182.379 9.61671C182.908 10.8145 183.181 12.0985 183.182 13.3953" fill="#FEC600"/>
<path fill-rule="evenodd" clip-rule="evenodd" d="M182.939 13.2905C182.942 15.2167 182.336 17.1004 181.199 18.7033C180.061 20.3061 178.443 21.5562 176.549 22.2952C174.655 23.0342 172.57 23.229 170.558 22.855C168.546 22.4809 166.697 21.5548 165.245 20.1938C163.794 18.8327 162.805 17.098 162.404 15.2091C162.003 13.3201 162.207 11.3618 162.991 9.58196C163.775 7.80211 165.104 6.28068 166.809 5.21018C168.514 4.13968 170.519 3.56822 172.57 3.5681C175.318 3.56667 177.954 4.59008 179.898 6.41328C181.843 8.23647 182.936 10.7102 182.939 13.2905Z" fill="#FEC700"/>
<path fill-rule="evenodd" clip-rule="evenodd" d="M182.696 13.1874C182.699 15.0847 182.103 16.9402 180.983 18.5191C179.863 20.098 178.269 21.3294 176.403 22.0574C174.537 22.7855 172.484 22.9774 170.502 22.609C168.52 22.2406 166.699 21.3284 165.269 19.9878C163.839 18.6472 162.865 16.9385 162.47 15.0778C162.075 13.2172 162.276 11.2883 163.049 9.53512C163.821 7.78197 165.13 6.28339 166.81 5.22901C168.489 4.17463 170.464 3.61183 172.485 3.61183C173.825 3.61081 175.152 3.85769 176.39 4.33836C177.629 4.81904 178.754 5.5241 179.702 6.41329C180.651 7.30247 181.403 8.35837 181.917 9.52067C182.431 10.683 182.696 11.9289 182.696 13.1874Z" fill="#FEC700"/>
<path fill-rule="evenodd" clip-rule="evenodd" d="M182.452 13.083C182.455 14.9513 181.868 16.7785 180.765 18.3332C179.662 19.888 178.092 21.1006 176.255 21.8175C174.418 22.5344 172.396 22.7234 170.444 22.3606C168.493 21.9978 166.699 21.0995 165.292 19.7794C163.884 18.4593 162.925 16.7767 162.536 14.9445C162.146 13.1123 162.345 11.2129 163.105 9.4866C163.866 7.7603 165.155 6.2847 166.809 5.24653C168.463 4.20836 170.408 3.65427 172.397 3.65439C173.717 3.65345 175.024 3.89658 176.243 4.3699C177.463 4.84323 178.571 5.53748 179.505 6.41301C180.438 7.28854 181.179 8.32821 181.685 9.47266C182.191 10.6171 182.452 11.8439 182.453 13.083" fill="#FEC800"/>
<path fill-rule="evenodd" clip-rule="evenodd" d="M182.211 12.9794C182.214 14.8186 181.636 16.6171 180.549 18.1476C179.463 19.678 177.918 20.8716 176.11 21.5772C174.301 22.2828 172.31 22.4688 170.389 22.1117C168.468 21.7545 166.703 20.8702 165.317 19.5708C163.931 18.2713 162.986 16.6149 162.603 14.8113C162.22 13.0077 162.415 11.1379 163.164 9.43836C163.912 7.73884 165.181 6.28603 166.809 5.26373C168.437 4.24142 170.351 3.69556 172.31 3.6952C173.609 3.69402 174.896 3.93326 176.097 4.39924C177.298 4.86522 178.389 5.54882 179.308 6.41098C180.228 7.27314 180.958 8.29698 181.456 9.424C181.954 10.551 182.21 11.7592 182.211 12.9794Z" fill="#FEC900"/>
<path fill-rule="evenodd" clip-rule="evenodd" d="M181.966 12.8744C181.97 14.6849 181.401 16.4557 180.332 17.9626C179.264 19.4695 177.743 20.6448 175.963 21.3399C174.183 22.0349 172.223 22.2184 170.331 21.8671C168.44 21.5158 166.702 20.6455 165.338 19.3664C163.974 18.0872 163.044 16.4568 162.667 14.6813C162.289 12.9058 162.481 11.0651 163.218 9.39213C163.956 7.71918 165.205 6.28916 166.807 5.28306C168.41 4.27695 170.295 3.73998 172.223 3.74009C174.805 3.73835 177.281 4.69966 179.109 6.41261C180.936 8.12556 181.964 10.4499 181.966 12.8744Z" fill="#FECA00"/>
<path fill-rule="evenodd" clip-rule="evenodd" d="M181.723 12.7707C181.726 14.5523 181.167 16.2948 180.115 17.7778C179.064 19.2607 177.568 20.4174 175.816 21.1014C174.064 21.7855 172.136 21.9662 170.275 21.6206C168.413 21.275 166.703 20.4187 165.361 19.16C164.018 17.9014 163.103 16.297 162.732 14.5498C162.36 12.8027 162.549 10.9914 163.275 9.34512C164 7.69886 165.229 6.29165 166.806 5.30159C168.383 4.31153 170.238 3.78312 172.135 3.78324C173.393 3.78229 174.639 4.0141 175.802 4.46541C176.965 4.91672 178.022 5.5787 178.912 6.41354C179.802 7.24839 180.509 8.23976 180.991 9.33104C181.474 10.4223 181.722 11.5921 181.723 12.7737" fill="#FECA00"/>
<path fill-rule="evenodd" clip-rule="evenodd" d="M181.479 12.6665C181.482 14.4188 180.931 16.1325 179.897 17.5909C178.862 19.0492 177.39 20.1866 175.667 20.8592C173.944 21.5317 172.047 21.7092 170.217 21.3691C168.386 21.0291 166.704 20.1867 165.384 18.9487C164.063 17.7108 163.163 16.1327 162.798 14.4143C162.433 12.6959 162.618 10.9144 163.331 9.29507C164.045 7.67577 165.253 6.29151 166.804 5.31744C168.355 4.34336 170.179 3.82324 172.045 3.82288C174.545 3.82114 176.943 4.75185 178.712 6.41031C180.481 8.06877 181.476 10.3191 181.478 12.6665" fill="#FFCB00"/>
<path fill-rule="evenodd" clip-rule="evenodd" d="M181.237 12.5622C181.239 14.2854 180.697 15.9707 179.68 17.4047C178.662 18.8386 177.214 19.9569 175.52 20.6181C173.825 21.2792 171.96 21.4534 170.16 21.1187C168.36 20.784 166.706 19.9554 165.407 18.7378C164.109 17.5201 163.224 15.9682 162.865 14.2782C162.506 12.5883 162.689 10.8363 163.391 9.24397C164.092 7.65164 165.281 6.29051 166.806 5.33279C168.332 4.37507 170.126 3.86381 171.961 3.86369C173.178 3.86283 174.383 4.08714 175.508 4.52382C176.633 4.96051 177.656 5.601 178.517 6.40874C179.379 7.21648 180.062 8.17564 180.529 9.23146C180.995 10.2873 181.236 11.4191 181.237 12.5622Z" fill="#FFCC00"/>
<path fill-rule="evenodd" clip-rule="evenodd" d="M180.992 12.4591C180.995 14.1535 180.462 15.8105 179.461 17.2205C178.461 18.6306 177.038 19.7302 175.371 20.3803C173.705 21.0304 171.871 21.2018 170.101 20.8727C168.331 20.5436 166.705 19.7289 165.428 18.5316C164.151 17.3343 163.282 15.8083 162.929 14.1466C162.576 12.485 162.756 10.7623 163.446 9.19672C164.136 7.6311 165.305 6.29285 166.805 5.35133C168.305 4.4098 170.069 3.9073 171.873 3.90742C174.29 3.90599 176.608 4.80613 178.318 6.40984C180.028 8.01355 180.99 10.1895 180.992 12.4591Z" fill="#FFCD00"/>
<path fill-rule="evenodd" clip-rule="evenodd" d="M180.751 12.3542C180.753 14.0196 180.23 15.6484 179.246 17.0343C178.263 18.4203 176.864 19.5012 175.226 20.1403C173.589 20.7793 171.786 20.9478 170.046 20.6244C168.306 20.301 166.708 19.5003 165.453 18.3235C164.198 17.1468 163.343 15.6468 162.996 14.0136C162.649 12.3803 162.826 10.6871 163.504 9.14823C164.182 7.60933 165.331 6.29389 166.805 5.36836C168.28 4.44283 170.013 3.94881 171.787 3.94881C172.963 3.94795 174.128 4.16468 175.215 4.58663C176.302 5.00858 177.29 5.62749 178.122 6.408C178.955 7.18852 179.615 8.11537 180.066 9.13562C180.517 10.1559 180.75 11.2495 180.751 12.3542Z" fill="#FFCD00"/>
<path fill-rule="evenodd" clip-rule="evenodd" d="M180.506 12.2505C180.509 13.887 179.994 15.4874 179.028 16.8493C178.062 18.2111 176.687 19.2732 175.078 19.9011C173.468 20.5289 171.697 20.6944 169.987 20.3765C168.278 20.0587 166.707 19.2718 165.474 18.1154C164.241 16.959 163.401 15.4851 163.06 13.8802C162.719 12.2753 162.893 10.6115 163.56 9.09936C164.226 7.58723 165.355 6.29471 166.804 5.38536C168.253 4.476 169.956 3.99067 171.699 3.99079C172.855 3.98993 174 4.2029 175.068 4.61753C176.136 5.03217 177.107 5.64035 177.925 6.40735C178.743 7.17435 179.392 8.08514 179.835 9.08772C180.278 10.0903 180.506 11.165 180.507 12.2505" fill="#FFCE00"/>
<path fill-rule="evenodd" clip-rule="evenodd" d="M180.263 12.1462C180.266 13.7536 179.761 15.3257 178.812 16.6636C177.863 18.0014 176.512 19.0448 174.932 19.6618C173.351 20.2787 171.611 20.4416 169.932 20.1296C168.253 19.8176 166.71 19.0449 165.499 17.9092C164.287 16.7735 163.462 15.3259 163.127 13.7496C162.792 12.1732 162.962 10.5389 163.616 9.05353C164.271 7.56815 165.38 6.29841 166.803 5.405C168.226 4.51158 169.899 4.03464 171.61 4.03452C173.903 4.03293 176.103 4.8866 177.725 6.40778C179.348 7.92896 180.261 9.99307 180.263 12.1462Z" fill="#FFCF00"/>
<path fill-rule="evenodd" clip-rule="evenodd" d="M180.02 12.0425C180.022 13.621 179.526 15.1647 178.594 16.4783C177.662 17.792 176.336 18.8165 174.784 19.4222C173.232 20.0279 171.523 20.1876 169.874 19.8811C168.225 19.5746 166.71 18.8156 165.521 17.7003C164.331 16.585 163.521 15.1634 163.192 13.6153C162.863 12.0673 163.031 10.4625 163.673 9.00394C164.316 7.54536 165.405 6.29859 166.803 5.42137C168.2 4.54415 169.843 4.07591 171.524 4.07591C172.639 4.07513 173.743 4.28057 174.773 4.6805C175.804 5.08043 176.74 5.66703 177.529 6.40679C178.318 7.14656 178.944 8.025 179.371 8.99197C179.799 9.95895 180.019 10.9955 180.02 12.0425Z" fill="#FFCF00"/>
<path fill-rule="evenodd" clip-rule="evenodd" d="M179.777 11.9394C179.78 13.4891 179.293 15.0046 178.378 16.2943C177.463 17.584 176.161 18.5898 174.637 19.1845C173.113 19.7792 171.436 19.936 169.817 19.6351C168.198 19.3342 166.711 18.5891 165.543 17.4942C164.375 16.3992 163.579 15.0036 163.257 13.4838C162.934 11.9641 163.098 10.3885 163.729 8.95658C164.36 7.52462 165.429 6.30059 166.801 5.43938C168.173 4.57816 169.786 4.11847 171.436 4.11847C172.531 4.11769 173.615 4.31936 174.626 4.71197C175.638 5.10458 176.557 5.68045 177.331 6.40669C178.106 7.13292 178.721 7.99531 179.14 8.94461C179.56 9.89391 179.776 10.9115 179.777 11.9394Z" fill="#FFD000"/>
<path fill-rule="evenodd" clip-rule="evenodd" d="M179.533 11.8345C179.535 13.3551 179.057 14.8423 178.159 16.1077C177.262 17.3732 175.984 18.3601 174.489 18.9435C172.993 19.527 171.347 19.6808 169.759 19.3855C168.17 19.0901 166.711 18.3589 165.565 17.2844C164.419 16.2099 163.639 14.8404 163.322 13.3491C163.005 11.8578 163.167 10.3118 163.786 8.90676C164.405 7.50168 165.454 6.30066 166.801 5.45569C168.147 4.61071 169.73 4.15975 171.349 4.15987C172.423 4.15916 173.487 4.35711 174.479 4.74241C175.472 5.12772 176.374 5.69283 177.134 6.40549C177.893 7.11814 178.497 7.96438 178.908 8.89589C179.32 9.8274 179.532 10.8259 179.533 11.8345Z" fill="#FFD101"/>
<path fill-rule="evenodd" clip-rule="evenodd" d="M179.291 11.7308C179.293 13.2222 178.824 14.6807 177.944 15.9217C177.063 17.1628 175.81 18.1307 174.344 18.703C172.877 19.2752 171.263 19.4261 169.705 19.1366C168.147 18.847 166.715 18.13 165.592 17.0763C164.468 16.0225 163.702 14.6794 163.391 13.2169C163.08 11.7544 163.238 10.2381 163.846 8.85997C164.453 7.48184 165.481 6.30377 166.801 5.47481C168.122 4.64585 169.674 4.20325 171.262 4.20301C173.39 4.20158 175.431 4.99385 176.936 6.40554C178.442 7.81724 179.289 9.73275 179.291 11.7308Z" fill="#FFD205"/>
<path fill-rule="evenodd" clip-rule="evenodd" d="M179.047 11.6265C179.049 13.0889 178.589 14.5191 177.725 15.7361C176.862 16.9531 175.633 17.9021 174.195 18.4632C172.757 19.0243 171.174 19.1722 169.646 18.8881C168.119 18.6041 166.715 17.9009 165.613 16.8675C164.511 15.8342 163.76 14.5171 163.455 13.0829C163.151 11.6487 163.306 10.1619 163.901 8.81052C164.497 7.45916 165.505 6.30401 166.8 5.49122C168.095 4.67843 169.617 4.24452 171.174 4.2444C172.207 4.2437 173.231 4.43408 174.185 4.80469C175.14 5.17529 176.008 5.71885 176.739 6.40434C177.47 7.08983 178.05 7.90383 178.446 8.79984C178.842 9.69586 179.046 10.6564 179.047 11.6265Z" fill="#FFD20A"/>
<path fill-rule="evenodd" clip-rule="evenodd" d="M178.803 11.5222C178.805 12.9559 178.354 14.358 177.508 15.5511C176.661 16.7442 175.457 17.6747 174.047 18.2248C172.637 18.7749 171.085 18.92 169.588 18.6416C168.09 18.3632 166.714 17.6739 165.634 16.6608C164.553 15.6478 163.817 14.3566 163.519 12.9506C163.22 11.5447 163.372 10.0871 163.956 8.7623C164.539 7.43753 165.528 6.30514 166.798 5.5084C168.067 4.71166 169.559 4.28638 171.086 4.28638C172.099 4.28568 173.101 4.47228 174.037 4.83553C174.973 5.19878 175.824 5.73157 176.54 6.40348C177.257 7.07539 177.825 7.87325 178.213 8.75153C178.602 9.6298 178.802 10.5713 178.803 11.5222Z" fill="#FFD30E"/>
<path fill-rule="evenodd" clip-rule="evenodd" d="M178.56 11.4186C178.562 12.8231 178.12 14.1965 177.29 15.3651C176.46 16.5337 175.28 17.4449 173.899 17.9834C172.517 18.5219 170.997 18.6636 169.53 18.3905C168.063 18.1174 166.715 17.4418 165.657 16.4491C164.599 15.4564 163.878 14.1913 163.586 12.8139C163.293 11.4364 163.443 10.0085 164.015 8.71076C164.587 7.41301 165.556 6.30377 166.799 5.52338C168.043 4.74298 169.505 4.32649 171.001 4.32661C171.993 4.32591 172.976 4.50881 173.893 4.86488C174.81 5.22094 175.643 5.74319 176.345 6.40178C177.047 7.06038 177.604 7.84241 177.984 8.70321C178.364 9.564 178.56 10.4867 178.56 11.4186Z" fill="#FFD410"/>
<path fill-rule="evenodd" clip-rule="evenodd" d="M178.317 11.3148C178.319 12.6903 177.887 14.0355 177.075 15.1802C176.262 16.3248 175.107 17.2175 173.754 17.7452C172.401 18.2729 170.912 18.4119 169.475 18.1447C168.038 17.8775 166.718 17.2161 165.682 16.2441C164.645 15.2721 163.939 14.0333 163.653 12.6843C163.366 11.3353 163.512 9.93684 164.072 8.66581C164.632 7.39479 165.581 6.30834 166.799 5.54393C168.017 4.77952 169.449 4.3715 170.914 4.3715C172.876 4.37039 174.758 5.10126 176.147 6.40334C177.535 7.70542 178.316 9.4721 178.317 11.3148Z" fill="#FFD413"/>
<path fill-rule="evenodd" clip-rule="evenodd" d="M178.073 11.2105C178.075 12.5569 177.652 13.8738 176.857 14.9943C176.062 16.1148 174.931 16.9888 173.607 17.5055C172.283 18.0222 170.825 18.1585 169.419 17.8971C168.012 17.6358 166.72 16.9885 165.705 16.0372C164.691 15.0859 163.999 13.8733 163.719 12.5529C163.438 11.2324 163.581 9.8635 164.129 8.61926C164.677 7.37502 165.605 6.31139 166.797 5.56295C167.989 4.81451 169.391 4.41488 170.824 4.41465C172.745 4.41354 174.588 5.12901 175.947 6.40368C177.306 7.67835 178.071 9.40782 178.072 11.2117" fill="#FFD516"/>
<path fill-rule="evenodd" clip-rule="evenodd" d="M177.831 11.1068C177.832 12.4245 177.418 13.7132 176.64 14.8097C175.862 15.9062 174.754 16.7612 173.459 17.2667C172.163 17.7721 170.736 17.9052 169.36 17.649C167.983 17.3929 166.719 16.7591 165.726 15.8278C164.733 14.8966 164.057 13.7097 163.783 12.4173C163.509 11.125 163.649 9.7853 164.186 8.5678C164.722 7.3503 165.632 6.3097 166.798 5.57768C167.965 4.84565 169.337 4.45511 170.74 4.45546C171.671 4.45475 172.593 4.62625 173.453 4.96015C174.313 5.29405 175.095 5.78382 175.754 6.40147C176.412 7.01913 176.935 7.75258 177.291 8.55993C177.648 9.36728 177.832 10.2327 177.833 11.1068" fill="#FFD618"/>
<path fill-rule="evenodd" clip-rule="evenodd" d="M177.587 11.0031C177.589 12.2918 177.184 13.5522 176.423 14.6247C175.662 15.6972 174.579 16.5336 173.312 17.0281C172.045 17.5226 170.65 17.6529 169.303 17.4027C167.957 17.1524 166.72 16.5327 165.749 15.6221C164.778 14.7115 164.116 13.5508 163.848 12.287C163.58 11.0231 163.716 9.71287 164.241 8.52203C164.766 7.33119 165.655 6.31328 166.796 5.59708C167.937 4.88089 169.278 4.49861 170.651 4.4986C171.561 4.49774 172.462 4.66533 173.304 4.99178C174.145 5.31824 174.91 5.79717 175.554 6.40122C176.198 7.00526 176.709 7.72258 177.058 8.51218C177.407 9.30179 177.587 10.1482 177.587 11.0031Z" fill="#FFD61B"/>
<path fill-rule="evenodd" clip-rule="evenodd" d="M177.344 10.8976C177.345 12.1573 176.949 13.3892 176.205 14.4375C175.462 15.4857 174.403 16.3032 173.165 16.7865C171.926 17.2698 170.562 17.3972 169.246 17.1525C167.931 16.9078 166.722 16.3021 165.772 15.412C164.823 14.5219 164.177 13.3874 163.914 12.152C163.652 10.9167 163.786 9.63601 164.298 8.47204C164.811 7.30807 165.68 6.31313 166.796 5.6131C167.911 4.91307 169.222 4.53941 170.563 4.53941C172.36 4.5383 174.084 5.20754 175.356 6.39992C176.627 7.5923 177.342 9.21016 177.344 10.8976Z" fill="#FFD71D"/>
<path fill-rule="evenodd" clip-rule="evenodd" d="M177.104 10.7945C177.106 12.0249 176.719 13.2282 175.992 14.2521C175.265 15.2759 174.232 16.0744 173.022 16.5465C171.812 17.0186 170.48 17.1431 169.194 16.9043C167.909 16.6654 166.728 16.074 165.801 15.2047C164.873 14.3354 164.242 13.2274 163.985 12.0208C163.728 10.8143 163.858 9.56327 164.359 8.42615C164.859 7.28902 165.708 6.31684 166.797 5.63257C167.886 4.9483 169.166 4.58269 170.476 4.58198C171.346 4.58111 172.207 4.74113 173.011 5.0529C173.815 5.36466 174.545 5.82206 175.161 6.39897C175.776 6.97588 176.264 7.661 176.598 8.4152C176.931 9.1694 177.103 9.97789 177.104 10.7945Z" fill="#FFD81F"/>
<path fill-rule="evenodd" clip-rule="evenodd" d="M176.856 10.6902C176.858 11.892 176.48 13.0673 175.771 14.0673C175.061 15.0674 174.051 15.8473 172.87 16.3083C171.688 16.7694 170.387 16.8909 169.132 16.6575C167.876 16.4241 166.723 15.8463 165.817 14.9972C164.912 14.148 164.295 13.0657 164.044 11.8871C163.794 10.7086 163.921 9.48676 164.411 8.37627C164.9 7.26578 165.729 6.31652 166.793 5.64858C167.856 4.98065 169.107 4.62407 170.387 4.62395C171.236 4.6234 172.077 4.77988 172.861 5.08444C173.646 5.389 174.359 5.83568 174.959 6.39899C175.56 6.96229 176.037 7.63119 176.362 8.36748C176.687 9.10377 176.856 9.89304 176.856 10.6902Z" fill="#FFD821"/>
<path fill-rule="evenodd" clip-rule="evenodd" d="M176.614 10.5871C176.615 11.7598 176.246 12.9065 175.554 13.8823C174.861 14.858 173.876 15.6189 172.723 16.0687C171.569 16.5185 170.3 16.6369 169.075 16.409C167.85 16.1812 166.725 15.6172 165.841 14.7886C164.957 13.9599 164.355 12.9038 164.111 11.7537C163.867 10.6037 163.991 9.41147 164.469 8.32789C164.946 7.24431 165.755 6.31805 166.793 5.66631C167.832 5.01457 169.052 4.66663 170.301 4.66651C171.129 4.66589 171.95 4.81854 172.716 5.11576C173.481 5.41298 174.177 5.84894 174.763 6.39875C175.35 6.94855 175.815 7.60142 176.132 8.32007C176.45 9.03872 176.613 9.80906 176.614 10.5871Z" fill="#FFD923"/>
<path fill-rule="evenodd" clip-rule="evenodd" d="M176.371 10.4846C176.372 11.6282 176.013 12.7465 175.337 13.6981C174.662 14.6497 173.701 15.3918 172.576 15.8305C171.452 16.2691 170.214 16.3846 169.019 16.1624C167.824 15.9403 166.727 15.3903 165.865 14.5822C165.003 13.774 164.416 12.7441 164.178 11.6225C163.94 10.501 164.061 9.33828 164.527 8.28154C164.992 7.22479 165.781 6.32147 166.794 5.68587C167.806 5.05027 168.997 4.71094 170.214 4.71082C171.022 4.71027 171.822 4.85918 172.569 5.14905C173.316 5.43892 173.994 5.86407 174.566 6.40021C175.138 6.93636 175.591 7.57301 175.901 8.27381C176.211 8.9746 176.37 9.72581 176.371 10.4846Z" fill="#FFDA24"/>
<path fill-rule="evenodd" clip-rule="evenodd" d="M176.127 10.3797C176.129 11.4944 175.778 12.5845 175.12 13.5121C174.461 14.4396 173.525 15.1629 172.429 15.5905C171.332 16.0181 170.126 16.1307 168.961 15.9141C167.797 15.6975 166.727 15.1614 165.887 14.3737C165.047 13.5859 164.475 12.5819 164.243 11.4887C164.011 10.3955 164.129 9.26223 164.583 8.23222C165.037 7.20221 165.806 6.32178 166.793 5.70232C167.78 5.08286 168.94 4.75222 170.127 4.75222C170.915 4.75167 171.695 4.8968 172.422 5.17932C173.15 5.46185 173.811 5.87623 174.369 6.3988C174.926 6.92138 175.368 7.54191 175.67 8.22495C175.971 8.908 176.127 9.64018 176.127 10.3797Z" fill="#FFDB27"/>
<path fill-rule="evenodd" clip-rule="evenodd" d="M175.884 10.2748C175.885 11.3606 175.544 12.4223 174.902 13.3257C174.261 14.2291 173.349 14.9336 172.281 15.35C171.213 15.7664 170.038 15.8761 168.904 15.6651C167.77 15.4542 166.728 14.932 165.91 14.1648C165.092 13.3975 164.534 12.4197 164.308 11.3549C164.082 10.2901 164.197 9.18628 164.639 8.18302C165.081 7.17976 165.83 6.32216 166.791 5.71873C167.753 5.1153 168.883 4.79315 170.039 4.79303C170.806 4.79248 171.566 4.93384 172.275 5.20905C172.983 5.48425 173.628 5.8879 174.17 6.39695C174.713 6.906 175.144 7.51047 175.438 8.17584C175.732 8.84121 175.883 9.55445 175.884 10.2748Z" fill="#FFDB28"/>
<path fill-rule="evenodd" clip-rule="evenodd" d="M175.641 10.1693C175.642 11.2262 175.31 12.2598 174.686 13.1392C174.062 14.0186 173.174 14.7045 172.135 15.1099C171.095 15.5153 169.951 15.6221 168.847 15.4168C167.743 15.2115 166.729 14.7033 165.933 13.9565C165.136 13.2097 164.594 12.2578 164.374 11.2213C164.153 10.1849 164.266 9.1104 164.696 8.13384C165.126 7.15728 165.855 6.32254 166.791 5.73523C167.727 5.14791 168.827 4.83442 169.952 4.83442C170.699 4.83395 171.438 4.97157 172.128 5.23942C172.818 5.50727 173.445 5.90011 173.973 6.3955C174.501 6.8909 174.921 7.47914 175.207 8.12666C175.493 8.77418 175.64 9.46829 175.641 10.1693Z" fill="#FFDC2A"/>
<path fill-rule="evenodd" clip-rule="evenodd" d="M175.398 10.0645C175.399 11.092 175.075 12.0967 174.468 12.9516C173.861 13.8064 172.998 14.473 171.987 14.867C170.977 15.2609 169.864 15.3645 168.791 15.1647C167.718 14.9649 166.732 14.4707 165.958 13.7445C165.184 13.0183 164.656 12.0928 164.442 11.0851C164.229 10.0774 164.338 9.03282 164.756 8.08342C165.175 7.13402 165.884 6.32251 166.793 5.75154C167.703 5.18058 168.773 4.87582 169.867 4.87582C171.333 4.87582 172.739 5.4223 173.776 6.39521C174.813 7.36812 175.396 8.68786 175.398 10.0645Z" fill="#FFDD2B"/>
<path fill-rule="evenodd" clip-rule="evenodd" d="M175.155 9.959C175.156 10.9579 174.842 11.9348 174.252 12.766C173.663 13.5972 172.823 14.2455 171.841 14.6287C170.859 15.012 169.778 15.113 168.734 14.919C167.691 14.725 166.732 14.2447 165.979 13.5389C165.227 12.833 164.714 11.9334 164.506 10.9538C164.298 9.97421 164.404 8.95867 164.81 8.03567C165.217 7.11268 165.906 6.32372 166.791 5.76861C167.675 5.21351 168.715 4.91721 169.778 4.91721C171.203 4.91642 172.57 5.44712 173.578 6.39261C174.587 7.33809 175.154 8.62093 175.155 9.959Z" fill="#FFDD2D"/>
<path fill-rule="evenodd" clip-rule="evenodd" d="M174.911 9.85763C174.913 10.8276 174.608 11.7762 174.035 12.5834C173.462 13.3905 172.648 14.0201 171.694 14.3922C170.74 14.7644 169.69 14.8625 168.677 14.6741C167.663 14.4858 166.733 14.0194 166.002 13.334C165.271 12.6487 164.773 11.7751 164.571 10.8239C164.369 9.87267 164.472 8.88654 164.867 7.99027C165.261 7.09401 165.931 6.32789 166.789 5.78886C167.648 5.24983 168.658 4.96211 169.691 4.9621C171.074 4.96131 172.401 5.47661 173.38 6.39466C174.359 7.31271 174.91 8.55835 174.911 9.85763Z" fill="#FFDE2E"/>
<path fill-rule="evenodd" clip-rule="evenodd" d="M174.665 9.75393C174.667 10.6949 174.371 11.6152 173.815 12.3982C173.259 13.1813 172.469 13.792 171.543 14.153C170.618 14.514 169.599 14.6091 168.616 14.4263C167.633 14.2435 166.73 13.7911 166.021 13.1261C165.312 12.4612 164.829 11.6137 164.633 10.6908C164.437 9.76802 164.537 8.81132 164.92 7.94182C165.303 7.07231 165.953 6.32907 166.786 5.80614C167.619 5.28321 168.598 5.00408 169.6 5.00408C170.943 5.00345 172.23 5.50346 173.18 6.39418C174.13 7.2849 174.664 8.4934 174.665 9.75393Z" fill="#FFDF30"/>
<path fill-rule="evenodd" clip-rule="evenodd" d="M174.424 9.65022C174.425 10.5621 174.139 11.4539 173.6 12.2127C173.061 12.9715 172.295 13.5633 171.399 13.9131C170.502 14.2629 169.515 14.3551 168.562 14.1779C167.61 14.0008 166.734 13.5623 166.047 12.918C165.36 12.2736 164.892 11.4523 164.702 10.558C164.512 9.66375 164.609 8.73664 164.98 7.89399C165.351 7.05135 165.98 6.33104 166.787 5.8242C167.595 5.31736 168.544 5.04676 169.515 5.04664C170.159 5.04609 170.797 5.16475 171.393 5.39582C171.988 5.6269 172.529 5.96587 172.985 6.39338C173.441 6.82088 173.803 7.32855 174.05 7.88737C174.297 8.44618 174.424 9.04521 174.424 9.65022Z" fill="#FFDF32"/>
<path fill-rule="evenodd" clip-rule="evenodd" d="M174.181 9.54711C174.182 10.4299 173.904 11.2932 173.382 12.0277C172.861 12.7622 172.119 13.3349 171.251 13.6734C170.382 14.012 169.427 14.1011 168.505 13.9295C167.583 13.7578 166.735 13.3333 166.07 12.7094C165.405 12.0855 164.952 11.2904 164.768 10.4246C164.584 9.55887 164.678 8.66135 165.037 7.84561C165.397 7.02987 166.006 6.33257 166.787 5.84193C167.569 5.35128 168.488 5.08932 169.428 5.0892C170.052 5.08873 170.669 5.20368 171.246 5.42748C171.822 5.65128 172.346 5.97954 172.788 6.39352C173.229 6.8075 173.579 7.29908 173.818 7.84018C174.057 8.38129 174.18 8.96131 174.181 9.54711Z" fill="#FFE033"/>
<path fill-rule="evenodd" clip-rule="evenodd" d="M173.938 9.44166C173.939 10.2956 173.67 11.1306 173.166 11.841C172.661 12.5515 171.944 13.1055 171.104 13.4329C170.264 13.7603 169.34 13.8465 168.448 13.6805C167.556 13.5145 166.737 13.1038 166.093 12.5003C165.45 11.8968 165.012 11.1277 164.834 10.2903C164.656 9.45285 164.747 8.58472 165.095 7.79572C165.442 7.00671 166.031 6.3323 166.787 5.8578C167.543 5.38329 168.432 5.13001 169.342 5.13001C169.945 5.1297 170.542 5.24098 171.1 5.45749C171.657 5.674 172.164 5.9915 172.591 6.39188C173.017 6.79225 173.356 7.26765 173.587 7.79093C173.818 8.31421 173.938 8.87513 173.938 9.44166Z" fill="#FFE135"/>
<path fill-rule="evenodd" clip-rule="evenodd" d="M173.695 9.33852C173.696 10.1635 173.437 10.9702 172.95 11.6567C172.462 12.3431 171.769 12.8785 170.958 13.1949C170.147 13.5114 169.254 13.5949 168.392 13.4347C167.53 13.2744 166.739 12.8778 166.117 12.295C165.495 11.7121 165.072 10.9692 164.9 10.1602C164.728 9.35116 164.815 8.51244 165.151 7.75011C165.487 6.98778 166.056 6.3361 166.786 5.87749C167.516 5.41889 168.375 5.17398 169.253 5.17374C170.43 5.17311 171.559 5.61148 172.392 6.39248C173.225 7.17347 173.694 8.23315 173.695 9.33852Z" fill="#FFE136"/>
<path fill-rule="evenodd" clip-rule="evenodd" d="M173.451 9.23424C173.452 10.0301 173.202 10.8084 172.732 11.4706C172.261 12.1328 171.593 12.6491 170.81 12.9542C170.027 13.2594 169.166 13.3397 168.334 13.1849C167.503 13.0301 166.739 12.6473 166.139 12.0848C165.54 11.5223 165.131 10.8054 164.966 10.0249C164.8 9.24431 164.885 8.43515 165.209 7.69974C165.533 6.96434 166.082 6.33574 166.787 5.89347C167.491 5.4512 168.32 5.21514 169.167 5.21514C169.73 5.21474 170.287 5.3184 170.806 5.52019C171.326 5.72198 171.798 6.01794 172.196 6.39118C172.594 6.76441 172.91 7.20759 173.125 7.69542C173.34 8.18324 173.451 8.70614 173.451 9.23424Z" fill="#FFE237"/>
<path fill-rule="evenodd" clip-rule="evenodd" d="M173.207 9.12994C173.208 9.89691 172.967 10.6469 172.514 11.2851C172.061 11.9233 171.417 12.421 170.662 12.7152C169.908 13.0094 169.078 13.0869 168.277 12.9379C167.476 12.7888 166.74 12.42 166.162 11.8781C165.584 11.3361 165.19 10.6454 165.03 9.8932C164.87 9.14105 164.952 8.36128 165.264 7.65256C165.576 6.94384 166.105 6.33801 166.784 5.91171C167.463 5.48542 168.262 5.25782 169.078 5.2577C169.62 5.2573 170.157 5.35716 170.658 5.55155C171.158 5.74594 171.613 6.03107 171.997 6.39065C172.38 6.75023 172.685 7.17721 172.892 7.64722C173.1 8.11723 173.207 8.62106 173.207 9.12994Z" fill="#FFE339"/>
<path fill-rule="evenodd" clip-rule="evenodd" d="M172.965 9.02684C172.966 9.76484 172.733 10.4865 172.297 11.1004C171.861 11.7144 171.241 12.1932 170.515 12.4761C169.79 12.759 168.991 12.8335 168.22 12.69C167.449 12.5465 166.741 12.1915 166.185 11.6699C165.629 11.1484 165.25 10.4837 165.096 9.75994C164.943 9.03619 165.021 8.28589 165.321 7.60397C165.622 6.92204 166.131 6.33913 166.784 5.92896C167.438 5.51879 168.206 5.29979 168.992 5.29967C170.045 5.2992 171.055 5.69159 171.8 6.39056C172.545 7.08952 172.964 8.0378 172.965 9.02684Z" fill="#FFE43A"/>
<path fill-rule="evenodd" clip-rule="evenodd" d="M172.721 8.92257C172.721 9.63104 172.497 10.3236 172.078 10.9127C171.659 11.5017 171.063 11.9609 170.366 12.232C169.669 12.5031 168.902 12.5741 168.163 12.4358C167.423 12.2976 166.743 11.9565 166.209 11.4555C165.676 10.9545 165.313 10.3163 165.166 9.62141C165.018 8.92655 165.094 8.20631 165.383 7.55177C165.671 6.89723 166.16 6.33778 166.787 5.94418C167.415 5.55057 168.152 5.34049 168.907 5.34049C169.918 5.34049 170.889 5.71788 171.604 6.38965C172.319 7.06143 172.721 7.97255 172.721 8.92257Z" fill="#FFE43C"/>
<path fill-rule="evenodd" clip-rule="evenodd" d="M172.479 8.81824C172.48 9.49829 172.266 10.1633 171.864 10.7291C171.462 11.2948 170.891 11.736 170.222 11.9967C169.553 12.2575 168.817 12.3261 168.107 12.1938C167.396 12.0616 166.744 11.7345 166.231 11.2538C165.719 10.7732 165.37 10.1607 165.228 9.49379C165.087 8.82686 165.159 8.13549 165.436 7.50714C165.713 6.87879 166.182 6.34169 166.784 5.9638C167.386 5.58592 168.094 5.38421 168.818 5.38421C169.299 5.38398 169.775 5.47261 170.219 5.64506C170.663 5.81751 171.066 6.07039 171.406 6.38927C171.746 6.70815 172.016 7.08678 172.2 7.50355C172.384 7.92031 172.479 8.36704 172.479 8.81824Z" fill="#FFE53D"/>
<path fill-rule="evenodd" clip-rule="evenodd" d="M172.235 8.71394C172.236 9.36508 172.031 10.0018 171.646 10.5436C171.262 11.0855 170.715 11.508 170.074 11.7577C169.434 12.0075 168.729 12.0732 168.049 11.9467C167.369 11.8202 166.744 11.5071 166.253 11.0469C165.763 10.5868 165.428 10.0003 165.293 9.36176C165.157 8.72319 165.226 8.0612 165.491 7.45954C165.757 6.85788 166.206 6.3436 166.782 5.98176C167.359 5.61991 168.037 5.42677 168.73 5.42677C169.659 5.4263 170.55 5.77232 171.207 6.38875C171.865 7.00518 172.235 7.84154 172.235 8.71394" fill="#FFE63E"/>
<path fill-rule="evenodd" clip-rule="evenodd" d="M171.992 8.61083C171.993 9.23302 171.797 9.84143 171.429 10.3591C171.062 10.8768 170.539 11.2805 169.927 11.519C169.315 11.7576 168.642 11.8204 167.992 11.6995C167.342 11.5785 166.745 11.2793 166.276 10.8396C165.807 10.3999 165.488 9.83948 165.358 9.2293C165.229 8.61912 165.295 7.98657 165.548 7.41167C165.802 6.83677 166.231 6.34537 166.782 5.99962C167.333 5.65388 167.98 5.46933 168.643 5.46933C169.082 5.46902 169.518 5.55004 169.924 5.70776C170.33 5.86548 170.699 6.09681 171.01 6.38854C171.321 6.68027 171.568 7.02668 171.736 7.40799C171.905 7.78929 171.992 8.19802 171.992 8.61083Z" fill="#FFE640"/>
<path fill-rule="evenodd" clip-rule="evenodd" d="M171.748 8.50595C171.748 9.09907 171.562 9.67903 171.211 10.1725C170.861 10.6659 170.362 11.0507 169.779 11.2781C169.196 11.5054 168.554 11.5652 167.934 11.4499C167.315 11.3345 166.745 11.0492 166.299 10.63C165.852 10.2109 165.547 9.67663 165.424 9.09496C165.3 8.51328 165.363 7.91029 165.605 7.36226C165.847 6.81424 166.256 6.34581 166.781 6.01623C167.306 5.68665 167.923 5.51073 168.555 5.51073C168.974 5.51049 169.389 5.58778 169.776 5.73819C170.164 5.88859 170.516 6.10916 170.812 6.3873C171.108 6.66544 171.344 6.9957 171.504 7.35923C171.665 7.72275 171.747 8.11241 171.748 8.50595Z" fill="#FFE741"/>
<path fill-rule="evenodd" clip-rule="evenodd" d="M171.506 8.40223C171.506 8.96627 171.329 9.51782 170.996 9.9871C170.662 10.4564 170.188 10.8223 169.634 11.0386C169.079 11.2549 168.468 11.3118 167.879 11.2022C167.29 11.0925 166.749 10.8213 166.324 10.4227C165.899 10.0241 165.609 9.5161 165.492 8.96295C165.374 8.4098 165.434 7.83636 165.664 7.31516C165.893 6.79396 166.282 6.34842 166.782 6.03491C167.281 5.72139 167.868 5.55399 168.469 5.55387C169.274 5.55355 170.046 5.85343 170.615 6.38757C171.185 6.92171 171.505 7.64637 171.506 8.40223Z" fill="#FFE843"/>
<path fill-rule="evenodd" clip-rule="evenodd" d="M171.262 8.29795C171.262 8.83294 171.094 9.35606 170.777 9.80115C170.461 10.2462 170.012 10.5933 169.486 10.7985C168.96 11.0037 168.381 11.0578 167.822 10.9539C167.263 10.8501 166.749 10.5929 166.346 10.215C165.943 9.8371 165.668 9.35538 165.556 8.83078C165.445 8.30618 165.501 7.76225 165.719 7.26777C165.936 6.77329 166.305 6.35047 166.778 6.05277C167.251 5.75507 167.808 5.59586 168.378 5.59527C168.756 5.59495 169.131 5.66462 169.48 5.80029C169.83 5.93596 170.147 6.13496 170.415 6.38595C170.683 6.63693 170.895 6.93497 171.04 7.26304C171.185 7.59111 171.259 7.94277 171.26 8.29795" fill="#FFE944"/>
<path fill-rule="evenodd" clip-rule="evenodd" d="M171.019 8.19425C171.02 8.70041 170.86 9.19533 170.561 9.61643C170.262 10.0375 169.837 10.3659 169.339 10.5599C168.841 10.754 168.293 10.805 167.765 10.7066C167.236 10.6082 166.75 10.3647 166.369 10.007C165.988 9.64934 165.728 9.19346 165.622 8.69708C165.517 8.20069 165.571 7.6861 165.777 7.21839C165.983 6.75068 166.332 6.35086 166.78 6.06952C167.228 5.78818 167.755 5.63795 168.294 5.63783C168.652 5.63759 169.006 5.70353 169.336 5.83188C169.667 5.96024 169.967 6.14849 170.22 6.38588C170.473 6.62327 170.674 6.90516 170.811 7.21544C170.948 7.52572 171.019 7.85832 171.019 8.19425Z" fill="#FFE946"/>
<path fill-rule="evenodd" clip-rule="evenodd" d="M170.776 8.09059C170.776 8.56767 170.626 9.03404 170.343 9.43074C170.061 9.82744 169.66 10.1367 169.191 10.3193C168.722 10.502 168.205 10.5498 167.707 10.4569C167.209 10.364 166.751 10.1344 166.391 9.79715C166.032 9.45993 165.787 9.03022 165.688 8.56235C165.589 8.09448 165.639 7.60946 165.833 7.16859C166.027 6.72773 166.356 6.35082 166.779 6.08551C167.201 5.8202 167.697 5.67841 168.205 5.67806C168.543 5.67782 168.877 5.74 169.188 5.86104C169.5 5.98208 169.783 6.1596 170.022 6.38348C170.261 6.60735 170.45 6.87318 170.579 7.16579C170.708 7.4584 170.775 7.77204 170.775 8.0888" fill="#FFEA47"/>
<path fill-rule="evenodd" clip-rule="evenodd" d="M170.533 7.98625C170.534 8.43515 170.393 8.87424 170.128 9.24794C169.863 9.62165 169.486 9.91317 169.045 10.0856C168.604 10.2581 168.118 10.3037 167.649 10.2167C167.18 10.1297 166.749 9.91398 166.411 9.5969C166.072 9.27981 165.842 8.87558 165.748 8.43538C165.654 7.99517 165.702 7.53877 165.885 7.12395C166.067 6.70913 166.377 6.35453 166.774 6.10504C167.172 5.85554 167.639 5.72237 168.117 5.72237C168.434 5.7219 168.748 5.7801 169.041 5.89364C169.334 6.00719 169.6 6.17385 169.825 6.3841C170.049 6.59436 170.227 6.84407 170.349 7.11898C170.47 7.39389 170.533 7.68859 170.533 7.98625Z" fill="#FFEB48"/>
<path fill-rule="evenodd" clip-rule="evenodd" d="M170.289 7.8825C170.289 8.3018 170.158 8.71189 169.91 9.06089C169.663 9.40988 169.31 9.68208 168.898 9.84306C168.486 10.004 168.032 10.0466 167.594 9.96524C167.156 9.88391 166.753 9.6824 166.437 9.3862C166.121 9.09 165.906 8.71242 165.819 8.30124C165.731 7.89006 165.775 7.46375 165.946 7.07626C166.117 6.68877 166.406 6.35751 166.777 6.1244C167.148 5.89129 167.585 5.76679 168.031 5.76667C168.327 5.76644 168.621 5.82103 168.895 5.92733C169.169 6.03363 169.418 6.18956 169.627 6.3862C169.837 6.58285 170.003 6.81636 170.117 7.07341C170.231 7.33045 170.289 7.60599 170.289 7.88429" fill="#FFEB4A"/>
<path fill-rule="evenodd" clip-rule="evenodd" d="M170.046 7.77764C170.046 8.16717 169.923 8.54796 169.692 8.87188C169.462 9.19581 169.135 9.44833 168.751 9.59753C168.368 9.74673 167.947 9.78592 167.54 9.71015C167.133 9.63437 166.759 9.44703 166.466 9.17179C166.172 8.89656 165.972 8.5458 165.891 8.16382C165.809 7.78185 165.85 7.38581 166.009 7.02576C166.167 6.66571 166.435 6.35781 166.78 6.14097C167.125 5.92413 167.53 5.80808 167.945 5.80749C168.221 5.8071 168.494 5.85777 168.749 5.9566C169.003 6.05543 169.235 6.20049 169.43 6.38347C169.625 6.56646 169.78 6.78378 169.886 7.023C169.991 7.26223 170.046 7.51866 170.046 7.77764Z" fill="#FFEC4B"/>
<path fill-rule="evenodd" clip-rule="evenodd" d="M169.802 7.67397C169.803 8.03532 169.689 8.38861 169.475 8.68918C169.262 8.98975 168.958 9.2241 168.603 9.36257C168.247 9.50104 167.856 9.53742 167.479 9.46711C167.101 9.39681 166.754 9.22297 166.482 8.96759C166.21 8.7122 166.025 8.38674 165.949 8.03237C165.874 7.678 165.912 7.31064 166.06 6.97674C166.207 6.64285 166.456 6.35742 166.776 6.15655C167.096 5.95569 167.472 5.84842 167.856 5.8483C168.112 5.84814 168.365 5.89524 168.601 5.98691C168.837 6.07859 169.051 6.21303 169.232 6.38257C169.413 6.5521 169.556 6.75341 169.654 6.97499C169.752 7.19658 169.802 7.43409 169.802 7.67397Z" fill="#FFED4D"/>
<path fill-rule="evenodd" clip-rule="evenodd" d="M169.557 7.56966C169.557 7.90196 169.453 8.22687 169.256 8.50329C169.06 8.7797 168.781 8.99522 168.454 9.12258C168.127 9.24993 167.767 9.28341 167.42 9.21877C167.073 9.15413 166.754 8.99428 166.504 8.75943C166.253 8.52459 166.083 8.2253 166.014 7.89942C165.944 7.57353 165.98 7.2357 166.115 6.92864C166.25 6.62158 166.479 6.35909 166.774 6.17436C167.068 5.98964 167.414 5.89098 167.767 5.89086C168.002 5.8907 168.235 5.934 168.452 6.0183C168.669 6.10259 168.866 6.22621 169.033 6.38211C169.199 6.53801 169.331 6.72313 169.421 6.92689C169.511 7.13066 169.557 7.34907 169.557 7.56966Z" fill="#FFED4E"/>
<path fill-rule="evenodd" clip-rule="evenodd" d="M169.316 7.46596C169.316 7.76935 169.221 8.066 169.041 8.31838C168.862 8.57075 168.607 8.76752 168.309 8.88379C168.01 9.00006 167.682 9.0306 167.365 8.97156C167.048 8.91251 166.757 8.76653 166.528 8.55208C166.3 8.33764 166.144 8.06435 166.081 7.76681C166.018 7.46926 166.05 7.16082 166.174 6.88049C166.297 6.60017 166.507 6.36056 166.775 6.19198C167.044 6.0234 167.36 5.93342 167.683 5.93342C167.897 5.93334 168.109 5.97292 168.308 6.04989C168.506 6.12687 168.686 6.23973 168.837 6.38204C168.989 6.52435 169.109 6.69332 169.191 6.8793C169.274 7.06528 169.316 7.26462 169.316 7.46596Z" fill="#FFEE50"/>
<path fill-rule="evenodd" clip-rule="evenodd" d="M169.073 7.36107C169.073 7.63551 168.987 7.90389 168.825 8.13227C168.663 8.36064 168.432 8.53876 168.163 8.64408C167.893 8.7494 167.596 8.7772 167.309 8.72397C167.022 8.67073 166.759 8.53885 166.552 8.345C166.345 8.15115 166.204 7.90404 166.147 7.63493C166.09 7.36582 166.119 7.08679 166.23 6.83314C166.342 6.57949 166.531 6.36261 166.774 6.20993C167.017 6.05725 167.302 5.97563 167.594 5.9754C167.986 5.97508 168.362 6.12087 168.639 6.38072C168.917 6.64057 169.073 6.99319 169.073 7.36107Z" fill="#FFEF51"/>
<path fill-rule="evenodd" clip-rule="evenodd" d="M168.829 7.25796C168.829 7.5033 168.752 7.74317 168.607 7.94723C168.462 8.1513 168.255 8.31041 168.014 8.40443C167.773 8.49846 167.507 8.52318 167.251 8.47547C166.995 8.42777 166.759 8.30978 166.574 8.13642C166.39 7.96306 166.264 7.74212 166.212 7.50153C166.161 7.26094 166.187 7.01151 166.287 6.78476C166.387 6.55802 166.556 6.36415 166.773 6.22766C166.99 6.09117 167.245 6.01819 167.507 6.01796C167.857 6.0178 168.193 6.14833 168.441 6.38086C168.689 6.61339 168.829 6.92888 168.829 7.25796Z" fill="#FFEF52"/>
<path fill-rule="evenodd" clip-rule="evenodd" d="M168.587 7.15425C168.587 7.37052 168.519 7.58193 168.391 7.76177C168.263 7.94161 168.081 8.08179 167.868 8.16461C167.655 8.24743 167.421 8.26916 167.195 8.22705C166.97 8.18495 166.762 8.0809 166.599 7.92805C166.436 7.77521 166.325 7.58044 166.28 7.36836C166.235 7.15627 166.258 6.9364 166.346 6.73652C166.434 6.53665 166.583 6.36575 166.774 6.24543C166.966 6.1251 167.191 6.06075 167.421 6.06052C167.574 6.06044 167.726 6.08867 167.867 6.14359C168.008 6.19851 168.137 6.27905 168.245 6.38062C168.353 6.48218 168.439 6.60277 168.498 6.73551C168.557 6.86825 168.587 7.01054 168.587 7.15425Z" fill="#FFF053"/>
<path fill-rule="evenodd" clip-rule="evenodd" d="M168.343 7.04939C168.343 7.23673 168.283 7.41983 168.172 7.57555C168.062 7.73126 167.904 7.85261 167.72 7.92425C167.535 7.99588 167.333 8.0146 167.137 7.97802C166.941 7.94144 166.761 7.85122 166.62 7.71875C166.479 7.58628 166.383 7.41751 166.344 7.23378C166.305 7.05004 166.325 6.85959 166.402 6.68649C166.478 6.51339 166.607 6.36541 166.773 6.26125C166.939 6.1571 167.134 6.10145 167.333 6.10133C167.601 6.10133 167.858 6.20121 168.047 6.37901C168.236 6.55681 168.343 6.79795 168.343 7.04939Z" fill="#FFF155"/>
<path d="M130.812 35.8687L133.424 39.2454H132.075L129.664 36.0024H129.072V39.2454H127.955V31.3224H129.447C130.3 31.2526 131.154 31.4611 131.863 31.9129C132.13 32.1244 132.342 32.3901 132.484 32.69C132.626 32.9899 132.694 33.3162 132.682 33.6442C132.695 34.1679 132.514 34.6796 132.169 35.0914C131.83 35.4938 131.349 35.7691 130.813 35.8675M129.041 34.9594H129.632C130.84 34.9594 131.64 34.7385 131.64 33.6609C131.64 32.606 130.855 32.0806 129.681 32.0806H129.041V34.9594ZM153.946 35.8675L152.799 36.0006H152.207V39.2436H151.089V31.3224H152.581C153.435 31.2526 154.288 31.4611 154.997 31.9129C155.264 32.1244 155.477 32.3901 155.619 32.69C155.761 32.9899 155.828 33.3162 155.817 33.6442C155.83 34.168 155.648 34.6797 155.303 35.0914C154.964 35.4938 154.483 35.7691 153.947 35.8675M152.174 34.9594H152.766C153.974 34.9594 154.774 34.7385 154.774 33.6609C154.774 32.606 153.989 32.0806 152.815 32.0806H152.174V34.9594ZM143.383 31.3206V36.4221C143.37 36.812 143.441 37.2004 143.593 37.5636C143.744 37.9268 143.973 38.2572 144.265 38.5347C144.557 38.8123 144.906 39.0311 145.291 39.1779C145.676 39.3247 146.088 39.3964 146.504 39.3887C146.932 39.3967 147.358 39.3204 147.753 39.1647C148.148 39.009 148.504 38.7774 148.798 38.4848C149.076 38.2101 149.292 37.8862 149.435 37.532C149.577 37.1779 149.643 36.8005 149.629 36.4221V31.3212H148.489V36.0908C148.534 36.6106 148.41 37.131 148.134 37.5833C147.928 37.798 147.676 37.9697 147.395 38.0872C147.114 38.2047 146.809 38.2655 146.501 38.2655C146.194 38.2655 145.889 38.2047 145.608 38.0872C145.327 37.9697 145.075 37.798 144.869 37.5833C144.596 37.13 144.472 36.6103 144.514 36.0908V31.3212L143.383 31.3206ZM45.8916 32.2251H47.8936V31.3212H42.8395V32.2251H44.8414V39.2388H45.8923L45.8916 32.2251ZM48.7194 39.2382H53.2478V38.3367H49.7703V35.3433H53.1467V34.443H49.7703V32.2245H53.2478V31.3212H48.7194V39.2382ZM60.6834 31.6902C60.0412 31.3306 59.3057 31.1447 58.5581 31.1529C57.9712 31.1463 57.3887 31.2493 56.8446 31.4559C56.3004 31.6625 55.8054 31.9685 55.3882 32.3563C54.971 32.7441 54.6401 33.2058 54.4145 33.7147C54.1889 34.2235 54.0733 34.7694 54.0742 35.3206C54.0762 35.8602 54.1916 36.3941 54.4138 36.8917C54.6359 37.3893 54.9605 37.8409 55.3688 38.2205C55.7772 38.6 56.2613 38.9002 56.7934 39.1038C57.3255 39.3073 57.8952 39.4102 58.4697 39.4066C59.2463 39.4009 60.0084 39.2085 60.6834 38.8478V37.6836C60.2669 38.0091 59.7734 38.236 59.2442 38.3454C58.7151 38.4548 58.1657 38.4435 57.6421 38.3124C57.1186 38.1813 56.6362 37.9342 56.2353 37.5918C55.8345 37.2495 55.5269 36.8219 55.3383 36.3448C55.1497 35.8678 55.0857 35.3553 55.1516 34.8503C55.2174 34.3452 55.4113 33.8623 55.7169 33.4422C56.0225 33.022 56.4309 32.6767 56.9079 32.4354C57.3849 32.194 57.9165 32.0635 58.4583 32.055C59.2749 32.0555 60.0644 32.3309 60.6834 32.8311V31.6902ZM62.8964 34.5141V31.3224H61.8455V39.2394H62.8964V35.4376H66.9105V39.2394H67.9607V31.3224H66.9105V34.5141H62.8964ZM69.3809 39.2388H70.4318V33.3373L76.7593 39.5642V31.3212H75.7084V37.172L69.3803 30.9439L69.3809 39.2388ZM86.4969 35.2788C86.4969 36.3788 86.0316 37.4337 85.2034 38.2115C84.3751 38.9893 83.2518 39.4263 82.0805 39.4263C80.9091 39.4263 79.7858 38.9893 78.9575 38.2115C78.1293 37.4337 77.664 36.3788 77.664 35.2788C77.664 34.1789 78.1293 33.1239 78.9575 32.3461C79.7858 31.5683 80.9091 31.1314 82.0805 31.1314C83.2518 31.1314 84.3751 31.5683 85.2034 32.3461C86.0316 33.1239 86.4969 34.1789 86.4969 35.2788ZM85.4461 35.2788C85.4522 34.8602 85.3697 34.4445 85.2033 34.0561C85.0369 33.6676 84.79 33.314 84.4769 33.0159C84.1638 32.7178 83.7907 32.4811 83.3794 32.3196C82.9681 32.158 82.5266 32.0748 82.0808 32.0748C81.6349 32.0748 81.1935 32.158 80.7821 32.3196C80.3708 32.4811 79.9977 32.7178 79.6846 33.0159C79.3715 33.314 79.1246 33.6676 78.9582 34.0561C78.7919 34.4445 78.7094 34.8602 78.7155 35.2788C78.7094 35.6975 78.7919 36.1132 78.9582 36.5016C79.1246 36.8901 79.3715 37.2436 79.6846 37.5417C79.9977 37.8398 80.3708 38.0766 80.7821 38.2381C81.1935 38.3997 81.6349 38.4829 82.0808 38.4829C82.5266 38.4829 82.9681 38.3997 83.3794 38.2381C83.7907 38.0766 84.1638 37.8398 84.4769 37.5417C84.79 37.2436 85.0369 36.8901 85.2033 36.5016C85.3697 36.1132 85.4522 35.6975 85.4461 35.2788ZM88.5643 31.3194H87.5135V39.2388H91.1245V38.3356H88.565L88.5643 31.3194ZM100.059 35.2788C100.059 36.3788 99.5932 37.4337 98.765 38.2115C97.9367 38.9893 96.8134 39.4263 95.642 39.4263C94.4707 39.4263 93.3474 38.9893 92.5191 38.2115C91.6909 37.4337 91.2256 36.3788 91.2256 35.2788C91.2256 34.1789 91.6909 33.1239 92.5191 32.3461C93.3474 31.5683 94.4707 31.1314 95.642 31.1314C96.8134 31.1314 97.9367 31.5683 98.765 32.3461C99.5932 33.1239 100.059 34.1789 100.059 35.2788ZM99.0102 35.2788C99.0163 34.8602 98.9338 34.4445 98.7674 34.0561C98.601 33.6676 98.3541 33.314 98.041 33.0159C97.7279 32.7178 97.3549 32.4811 96.9435 32.3196C96.5322 32.158 96.0908 32.0748 95.6449 32.0748C95.199 32.0748 94.7576 32.158 94.3463 32.3196C93.9349 32.4811 93.5619 32.7178 93.2487 33.0159C92.9356 33.314 92.6887 33.6676 92.5224 34.0561C92.356 34.4445 92.2735 34.8602 92.2796 35.2788C92.2735 35.6975 92.356 36.1132 92.5224 36.5016C92.6887 36.8901 92.9356 37.2436 93.2487 37.5417C93.5619 37.8398 93.9349 38.0766 94.3463 38.2381C94.7576 38.3997 95.199 38.4829 95.6449 38.4829C96.0908 38.4829 96.5322 38.3997 96.9435 38.2381C97.3549 38.0766 97.7279 37.8398 98.041 37.5417C98.3541 37.2436 98.601 36.8901 98.7674 36.5016C98.9338 36.1132 99.0163 35.6975 99.0102 35.2788ZM142.338 35.2788C142.338 36.3788 141.872 37.4337 141.044 38.2115C140.216 38.9893 139.093 39.4263 137.921 39.4263C136.75 39.4263 135.627 38.9893 134.798 38.2115C133.97 37.4337 133.505 36.3788 133.505 35.2788C133.505 34.1789 133.97 33.1239 134.798 32.3461C135.627 31.5683 136.75 31.1314 137.921 31.1314C139.093 31.1314 140.216 31.5683 141.044 32.3461C141.872 33.1239 142.338 34.1789 142.338 35.2788ZM141.287 35.2788C141.293 34.8602 141.21 34.4445 141.044 34.0561C140.878 33.6676 140.631 33.314 140.318 33.0159C140.005 32.7178 139.632 32.4811 139.22 32.3196C138.809 32.158 138.367 32.0748 137.922 32.0748C137.476 32.0748 137.034 32.158 136.623 32.3196C136.212 32.4811 135.838 32.7178 135.525 33.0159C135.212 33.314 134.965 33.6676 134.799 34.0561C134.633 34.4445 134.55 34.8602 134.556 35.2788C134.55 35.6975 134.633 36.1132 134.799 36.5016C134.965 36.8901 135.212 37.2436 135.525 37.5417C135.838 37.8398 136.212 38.0766 136.623 38.2381C137.034 38.3997 137.476 38.4829 137.922 38.4829C138.367 38.4829 138.809 38.3997 139.22 38.2381C139.632 38.0766 140.005 37.8398 140.318 37.5417C140.631 37.2436 140.878 36.8901 141.044 36.5016C141.21 36.1132 141.293 35.6975 141.287 35.2788ZM105.415 35.2466V36.1493H107.593C107.514 36.7891 107.191 37.3804 106.683 37.8133C106.175 38.2462 105.517 38.4912 104.832 38.5027C103.947 38.4631 103.113 38.105 102.503 37.5028C101.892 36.9007 101.552 36.1008 101.553 35.2693C101.533 34.6022 101.74 33.9464 102.146 33.3983C102.551 32.8501 103.133 32.4384 103.806 32.2235C104.478 32.0086 105.207 32.0019 105.884 32.2043C106.561 32.4067 107.152 32.8075 107.568 33.3481L108.307 32.6866C107.736 32.0201 106.958 31.537 106.081 31.3045C105.205 31.0719 104.273 31.1014 103.415 31.3889C102.557 31.6764 101.815 32.2075 101.293 32.9087C100.772 33.6098 100.495 34.4461 100.502 35.3015C100.5 36.3728 100.944 37.4024 101.74 38.1697C102.537 38.9369 103.621 39.3807 104.762 39.406C105.297 39.4162 105.83 39.3231 106.325 39.1324C106.821 38.9417 107.27 38.6574 107.644 38.2972C108.018 37.9371 108.309 37.5086 108.5 37.0384C108.691 36.5682 108.777 36.0662 108.752 35.5636V35.2484L105.415 35.2466ZM123.576 35.2466V36.1493H125.756C125.678 36.7896 125.354 37.3814 124.846 37.8143C124.337 38.2472 123.678 38.4919 122.992 38.5027C122.108 38.4625 121.275 38.104 120.665 37.5018C120.055 36.8996 119.715 36.0998 119.717 35.2687C119.696 34.6015 119.904 33.9457 120.309 33.3975C120.714 32.8492 121.296 32.4374 121.969 32.2225C122.642 32.0075 123.37 32.0008 124.047 32.2033C124.725 32.4058 125.315 32.8068 125.732 33.3475L126.47 32.686C125.899 32.0195 125.121 31.5364 124.244 31.3039C123.368 31.0713 122.436 31.1008 121.578 31.3883C120.72 31.6758 119.978 32.2069 119.456 32.9081C118.935 33.6092 118.658 34.4455 118.665 35.3009C118.663 36.3722 119.107 37.4018 119.904 38.1691C120.7 38.9363 121.784 39.3801 122.925 39.4054C123.46 39.4156 123.993 39.3225 124.488 39.1318C124.984 38.9411 125.433 38.6568 125.807 38.2967C126.181 37.9365 126.473 37.508 126.663 37.0378C126.854 36.5676 126.94 36.0656 126.915 35.563V35.2478L123.576 35.2466ZM111.676 35.7935V39.2365H112.727V35.7953L115.478 31.3212H114.268L112.2 34.7021L110.131 31.3212H108.923L111.676 35.7935Z" fill="#7D7D7D"/>
<path fill-rule="evenodd" clip-rule="evenodd" d="M183.011 8.76788C181.078 5.51654 177.587 2.77803 171.938 3.1446C170.127 3.28877 168.38 3.84176 166.846 4.75651C165.311 5.67125 164.035 6.92065 163.126 8.39833C162.139 9.97522 161.613 11.7684 161.6 13.5971C161.564 19.67 166.009 23.7219 171.372 24.4198C176.013 25.0234 179.199 23.2509 181.597 20.8658C183.028 19.3248 183.951 17.4262 184.253 15.4013C184.602 13.123 184.166 10.7996 183.01 8.77027M177.174 4.67654L177.192 4.6855C179.363 5.57905 181.153 7.12896 182.278 9.08848C181.345 9.49665 180.357 9.78232 179.341 9.93744C178.922 8.12158 178.006 6.43951 176.685 5.05684C176.885 4.9243 177.176 4.67654 177.176 4.67654M173.409 16.4091V11.2592C175.151 11.2523 176.889 11.1103 178.606 10.8347C179.232 12.387 179.051 15.1112 178.719 16.8288C176.965 16.5448 175.189 16.4028 173.409 16.4043M178.549 17.5721C177.97 19.4682 177.203 21.1882 175.782 22.2933C175.024 22.0144 174.222 21.8531 173.409 21.8156V17.2007C175.131 17.1823 176.851 17.3065 178.549 17.5721ZM173.409 10.4634V5.79714C174.237 5.78418 175.057 5.64069 175.835 5.37266C177.191 6.50699 177.959 8.18699 178.546 10.0413C176.851 10.3422 175.129 10.4844 173.405 10.4658M176.229 4.31176C175.238 4.86381 174.096 5.12844 172.946 5.07236C171.82 5.08856 170.707 4.83654 169.713 4.33982C171.433 3.66878 174.421 3.78938 176.232 4.31176M167.252 16.8312C166.8 14.8537 166.819 12.8067 167.309 10.8371C169.045 11.1097 170.802 11.2516 172.563 11.2616V16.4073C170.783 16.4045 169.006 16.5459 167.252 16.8312ZM172.563 17.2037V21.8186C171.717 21.882 170.882 22.0424 170.077 22.2962C168.743 20.9847 167.823 19.3499 167.423 17.575C169.121 17.3109 170.841 17.1866 172.563 17.2037M167.423 10.095C167.82 8.31921 168.739 6.68331 170.075 5.37266C170.874 5.63637 171.713 5.77963 172.56 5.79714V10.4658C170.839 10.4591 169.121 10.335 167.419 10.0945M168.662 4.68311C168.668 4.68311 168.696 4.664 168.7 4.66579C168.883 4.79325 169.076 4.90798 169.276 5.00908C167.956 6.40883 167.044 8.10564 166.629 9.93445C165.613 9.78067 164.625 9.49516 163.692 9.08609C164.8 7.15338 166.544 5.60892 168.664 4.68311M163.24 9.77505C164.253 10.1918 165.315 10.4946 166.404 10.6771C166.029 12.7669 166.029 14.9008 166.404 16.9906C165.314 17.1668 164.25 17.4698 163.24 17.8927C162.145 15.784 162.126 11.8783 163.24 9.77326M168.778 22.9858C166.601 22.1012 164.808 20.5489 163.692 18.5828C164.623 18.1684 165.613 17.8822 166.631 17.7333C167.044 19.551 167.96 21.2345 169.287 22.6144C169.104 22.7214 168.933 22.8458 168.778 22.9858ZM169.739 23.3571C171.146 22.3685 174.783 22.3297 176.179 23.3571C174.071 23.8983 171.847 23.8983 169.739 23.3571ZM177.139 22.9858C176.986 22.8406 176.816 22.7139 176.63 22.6085C177.928 21.2055 178.856 19.5354 179.34 17.7333C180.357 17.8836 181.346 18.1697 182.277 18.5828C181.145 20.5561 179.332 22.1089 177.135 22.9858M182.672 17.8927C181.67 17.4502 180.604 17.1463 179.509 16.9906C179.955 14.907 179.955 12.7607 179.509 10.6771C180.586 10.5235 181.634 10.2195 182.616 9.77505C183.902 11.7548 183.817 15.8318 182.672 17.8945" fill="black"/>
</g>
</g>
<defs>
<clipPath id="clip0_6118_9381">
<rect width="185" height="40" fill="white"/>
</clipPath>
</defs>
</svg>
